<mxfile host="Electron" modified="2024-04-15T15:47:07.771Z" agent="Mozilla/5.0 (Windows NT 10.0; Win64; x64) AppleWebKit/537.36 (KHTML, like Gecko) draw.io/24.0.4 Chrome/120.0.6099.109 Electron/28.1.0 Safari/537.36" etag="YJ2RUcIWqhxuN_mOrGtx" version="24.0.4" type="device">
  <diagram name="PÃ¡gina-1" id="-V-thLrMBaKeMTXamFyy">
    <mxGraphModel dx="1104" dy="508" grid="1" gridSize="10" guides="1" tooltips="1" connect="1" arrows="1" fold="1" page="1" pageScale="1" pageWidth="827" pageHeight="1169" math="0" shadow="0">
      <root>
        <mxCell id="0" />
        <mxCell id="1" parent="0" />
        <mxCell id="njSxedjWznday7_HgHKP-2" value="&lt;span style=&quot;margin: 0px; padding: 0px; border: 0px; font-weight: 400; font-style: normal; font-family: &amp;quot;gg sans&amp;quot;, &amp;quot;Noto Sans&amp;quot;, &amp;quot;Helvetica Neue&amp;quot;, Helvetica, Arial, sans-serif; font-size: 16px; vertical-align: baseline; outline: 0px; color: rgb(219, 222, 225); font-variant-ligatures: normal; font-variant-caps: normal; letter-spacing: normal; orphans: 2; text-align: left; text-indent: 0px; text-transform: none; widows: 2; word-spacing: 0px; -webkit-text-stroke-width: 0px; white-space: break-spaces; background-color: rgba(2, 2, 2, 0.06); text-decoration-thickness: initial; text-decoration-style: initial; text-decoration-color: initial;&quot;&gt;1-producto&lt;/span&gt;&lt;span style=&quot;margin: 0px; padding: 0px; border: 0px; font-weight: 400; font-style: normal; font-family: &amp;quot;gg sans&amp;quot;, &amp;quot;Noto Sans&amp;quot;, &amp;quot;Helvetica Neue&amp;quot;, Helvetica, Arial, sans-serif; font-size: 16px; vertical-align: baseline; outline: 0px; color: rgb(219, 222, 225); font-variant-ligatures: normal; font-variant-caps: normal; letter-spacing: normal; orphans: 2; text-align: left; text-indent: 0px; text-transform: none; widows: 2; word-spacing: 0px; -webkit-text-stroke-width: 0px; white-space: break-spaces; background-color: rgba(2, 2, 2, 0.06); text-decoration-thickness: initial; text-decoration-style: initial; text-decoration-color: initial;&quot;&gt;(leche&lt;/span&gt;&lt;span style=&quot;margin: 0px; padding: 0px; border: 0px; font-weight: 400; font-style: normal; font-family: &amp;quot;gg sans&amp;quot;, &amp;quot;Noto Sans&amp;quot;, &amp;quot;Helvetica Neue&amp;quot;, Helvetica, Arial, sans-serif; font-size: 16px; vertical-align: baseline; outline: 0px; color: rgb(219, 222, 225); font-variant-ligatures: normal; font-variant-caps: normal; letter-spacing: normal; orphans: 2; text-align: left; text-indent: 0px; text-transform: none; widows: 2; word-spacing: 0px; -webkit-text-stroke-width: 0px; white-space: break-spaces; background-color: rgba(2, 2, 2, 0.06); text-decoration-thickness: initial; text-decoration-style: initial; text-decoration-color: initial;&quot;&gt;,150&lt;/span&gt;&lt;span style=&quot;margin: 0px; padding: 0px; border: 0px; font-weight: 400; font-style: normal; font-family: &amp;quot;gg sans&amp;quot;, &amp;quot;Noto Sans&amp;quot;, &amp;quot;Helvetica Neue&amp;quot;, Helvetica, Arial, sans-serif; font-size: 16px; vertical-align: baseline; outline: 0px; color: rgb(219, 222, 225); font-variant-ligatures: normal; font-variant-caps: normal; letter-spacing: normal; orphans: 2; text-align: left; text-indent: 0px; text-transform: none; widows: 2; word-spacing: 0px; -webkit-text-stroke-width: 0px; white-space: break-spaces; background-color: rgba(2, 2, 2, 0.06); text-decoration-thickness: initial; text-decoration-style: initial; text-decoration-color: initial;&quot;&gt;)&lt;/span&gt;&lt;span style=&quot;margin: 0px; padding: 0px; border: 0px; font-weight: 400; font-style: normal; font-family: &amp;quot;gg sans&amp;quot;, &amp;quot;Noto Sans&amp;quot;, &amp;quot;Helvetica Neue&amp;quot;, Helvetica, Arial, sans-serif; font-size: 16px; vertical-align: baseline; outline: 0px; color: rgb(219, 222, 225); font-variant-ligatures: normal; font-variant-caps: normal; letter-spacing: normal; orphans: 2; text-align: left; text-indent: 0px; text-transform: none; widows: 2; word-spacing: 0px; -webkit-text-stroke-width: 0px; white-space: break-spaces; background-color: rgba(2, 2, 2, 0.06); text-decoration-thickness: initial; text-decoration-style: initial; text-decoration-color: initial;&quot;&gt;.&lt;br&gt;2-producto&lt;/span&gt;&lt;span style=&quot;margin: 0px; padding: 0px; border: 0px; font-weight: 400; font-style: normal; font-family: &amp;quot;gg sans&amp;quot;, &amp;quot;Noto Sans&amp;quot;, &amp;quot;Helvetica Neue&amp;quot;, Helvetica, Arial, sans-serif; font-size: 16px; vertical-align: baseline; outline: 0px; color: rgb(219, 222, 225); font-variant-ligatures: normal; font-variant-caps: normal; letter-spacing: normal; orphans: 2; text-align: left; text-indent: 0px; text-transform: none; widows: 2; word-spacing: 0px; -webkit-text-stroke-width: 0px; white-space: break-spaces; background-color: rgba(2, 2, 2, 0.06); text-decoration-thickness: initial; text-decoration-style: initial; text-decoration-color: initial;&quot;&gt;(yogurt&lt;/span&gt;&lt;span style=&quot;margin: 0px; padding: 0px; border: 0px; font-weight: 400; font-style: normal; font-family: &amp;quot;gg sans&amp;quot;, &amp;quot;Noto Sans&amp;quot;, &amp;quot;Helvetica Neue&amp;quot;, Helvetica, Arial, sans-serif; font-size: 16px; vertical-align: baseline; outline: 0px; color: rgb(219, 222, 225); font-variant-ligatures: normal; font-variant-caps: normal; letter-spacing: normal; orphans: 2; text-align: left; text-indent: 0px; text-transform: none; widows: 2; word-spacing: 0px; -webkit-text-stroke-width: 0px; white-space: break-spaces; background-color: rgba(2, 2, 2, 0.06); text-decoration-thickness: initial; text-decoration-style: initial; text-decoration-color: initial;&quot;&gt;,140&lt;/span&gt;&lt;span style=&quot;margin: 0px; padding: 0px; border: 0px; font-weight: 400; font-style: normal; font-family: &amp;quot;gg sans&amp;quot;, &amp;quot;Noto Sans&amp;quot;, &amp;quot;Helvetica Neue&amp;quot;, Helvetica, Arial, sans-serif; font-size: 16px; vertical-align: baseline; outline: 0px; color: rgb(219, 222, 225); font-variant-ligatures: normal; font-variant-caps: normal; letter-spacing: normal; orphans: 2; text-align: left; text-indent: 0px; text-transform: none; widows: 2; word-spacing: 0px; -webkit-text-stroke-width: 0px; white-space: break-spaces; background-color: rgba(2, 2, 2, 0.06); text-decoration-thickness: initial; text-decoration-style: initial; text-decoration-color: initial;&quot;&gt;)&lt;/span&gt;&lt;span style=&quot;margin: 0px; padding: 0px; border: 0px; font-weight: 400; font-style: normal; font-family: &amp;quot;gg sans&amp;quot;, &amp;quot;Noto Sans&amp;quot;, &amp;quot;Helvetica Neue&amp;quot;, Helvetica, Arial, sans-serif; font-size: 16px; vertical-align: baseline; outline: 0px; color: rgb(219, 222, 225); font-variant-ligatures: normal; font-variant-caps: normal; letter-spacing: normal; orphans: 2; text-align: left; text-indent: 0px; text-transform: none; widows: 2; word-spacing: 0px; -webkit-text-stroke-width: 0px; white-space: break-spaces; background-color: rgba(2, 2, 2, 0.06); text-decoration-thickness: initial; text-decoration-style: initial; text-decoration-color: initial;&quot;&gt;.&lt;br&gt;3producto&lt;/span&gt;&lt;span style=&quot;margin: 0px; padding: 0px; border: 0px; font-weight: 400; font-style: normal; font-family: &amp;quot;gg sans&amp;quot;, &amp;quot;Noto Sans&amp;quot;, &amp;quot;Helvetica Neue&amp;quot;, Helvetica, Arial, sans-serif; font-size: 16px; vertical-align: baseline; outline: 0px; color: rgb(219, 222, 225); font-variant-ligatures: normal; font-variant-caps: normal; letter-spacing: normal; orphans: 2; text-align: left; text-indent: 0px; text-transform: none; widows: 2; word-spacing: 0px; -webkit-text-stroke-width: 0px; white-space: break-spaces; background-color: rgba(2, 2, 2, 0.06); text-decoration-thickness: initial; text-decoration-style: initial; text-decoration-color: initial;&quot;&gt;(jabon&lt;/span&gt;&lt;span style=&quot;margin: 0px; padding: 0px; border: 0px; font-weight: 400; font-style: normal; font-family: &amp;quot;gg sans&amp;quot;, &amp;quot;Noto Sans&amp;quot;, &amp;quot;Helvetica Neue&amp;quot;, Helvetica, Arial, sans-serif; font-size: 16px; vertical-align: baseline; outline: 0px; color: rgb(219, 222, 225); font-variant-ligatures: normal; font-variant-caps: normal; letter-spacing: normal; orphans: 2; text-align: left; text-indent: 0px; text-transform: none; widows: 2; word-spacing: 0px; -webkit-text-stroke-width: 0px; white-space: break-spaces; background-color: rgba(2, 2, 2, 0.06); text-decoration-thickness: initial; text-decoration-style: initial; text-decoration-color: initial;&quot;&gt;,120&lt;/span&gt;&lt;span style=&quot;margin: 0px; padding: 0px; border: 0px; font-weight: 400; font-style: normal; font-family: &amp;quot;gg sans&amp;quot;, &amp;quot;Noto Sans&amp;quot;, &amp;quot;Helvetica Neue&amp;quot;, Helvetica, Arial, sans-serif; font-size: 16px; vertical-align: baseline; outline: 0px; color: rgb(219, 222, 225); font-variant-ligatures: normal; font-variant-caps: normal; letter-spacing: normal; orphans: 2; text-align: left; text-indent: 0px; text-transform: none; widows: 2; word-spacing: 0px; -webkit-text-stroke-width: 0px; white-space: break-spaces; background-color: rgba(2, 2, 2, 0.06); text-decoration-thickness: initial; text-decoration-style: initial; text-decoration-color: initial;&quot;&gt;)&lt;/span&gt;&lt;span style=&quot;margin: 0px; padding: 0px; border: 0px; font-weight: 400; font-style: normal; font-family: &amp;quot;gg sans&amp;quot;, &amp;quot;Noto Sans&amp;quot;, &amp;quot;Helvetica Neue&amp;quot;, Helvetica, Arial, sans-serif; font-size: 16px; vertical-align: baseline; outline: 0px; color: rgb(219, 222, 225); font-variant-ligatures: normal; font-variant-caps: normal; letter-spacing: normal; orphans: 2; text-align: left; text-indent: 0px; text-transform: none; widows: 2; word-spacing: 0px; -webkit-text-stroke-width: 0px; white-space: break-spaces; background-color: rgba(2, 2, 2, 0.06); text-decoration-thickness: initial; text-decoration-style: initial; text-decoration-color: initial;&quot;&gt;.&lt;br&gt;4-producto&lt;/span&gt;&lt;span style=&quot;margin: 0px; padding: 0px; border: 0px; font-weight: 400; font-style: normal; font-family: &amp;quot;gg sans&amp;quot;, &amp;quot;Noto Sans&amp;quot;, &amp;quot;Helvetica Neue&amp;quot;, Helvetica, Arial, sans-serif; font-size: 16px; vertical-align: baseline; outline: 0px; color: rgb(219, 222, 225); font-variant-ligatures: normal; font-variant-caps: normal; letter-spacing: normal; orphans: 2; text-align: left; text-indent: 0px; text-transform: none; widows: 2; word-spacing: 0px; -webkit-text-stroke-width: 0px; white-space: break-spaces; background-color: rgba(2, 2, 2, 0.06); text-decoration-thickness: initial; text-decoration-style: initial; text-decoration-color: initial;&quot;&gt;(shampoo&lt;/span&gt;&lt;span style=&quot;margin: 0px; padding: 0px; border: 0px; font-weight: 400; font-style: normal; font-family: &amp;quot;gg sans&amp;quot;, &amp;quot;Noto Sans&amp;quot;, &amp;quot;Helvetica Neue&amp;quot;, Helvetica, Arial, sans-serif; font-size: 16px; vertical-align: baseline; outline: 0px; color: rgb(219, 222, 225); font-variant-ligatures: normal; font-variant-caps: normal; letter-spacing: normal; orphans: 2; text-align: left; text-indent: 0px; text-transform: none; widows: 2; word-spacing: 0px; -webkit-text-stroke-width: 0px; white-space: break-spaces; background-color: rgba(2, 2, 2, 0.06); text-decoration-thickness: initial; text-decoration-style: initial; text-decoration-color: initial;&quot;&gt;,850&lt;/span&gt;&lt;span style=&quot;margin: 0px; padding: 0px; border: 0px; font-weight: 400; font-style: normal; font-family: &amp;quot;gg sans&amp;quot;, &amp;quot;Noto Sans&amp;quot;, &amp;quot;Helvetica Neue&amp;quot;, Helvetica, Arial, sans-serif; font-size: 16px; vertical-align: baseline; outline: 0px; color: rgb(219, 222, 225); font-variant-ligatures: normal; font-variant-caps: normal; letter-spacing: normal; orphans: 2; text-align: left; text-indent: 0px; text-transform: none; widows: 2; word-spacing: 0px; -webkit-text-stroke-width: 0px; white-space: break-spaces; background-color: rgba(2, 2, 2, 0.06); text-decoration-thickness: initial; text-decoration-style: initial; text-decoration-color: initial;&quot;&gt;)&lt;/span&gt;&lt;span style=&quot;margin: 0px; padding: 0px; border: 0px; font-weight: 400; font-style: normal; font-family: &amp;quot;gg sans&amp;quot;, &amp;quot;Noto Sans&amp;quot;, &amp;quot;Helvetica Neue&amp;quot;, Helvetica, Arial, sans-serif; font-size: 16px; vertical-align: baseline; outline: 0px; color: rgb(219, 222, 225); font-variant-ligatures: normal; font-variant-caps: normal; letter-spacing: normal; orphans: 2; text-align: left; text-indent: 0px; text-transform: none; widows: 2; word-spacing: 0px; -webkit-text-stroke-width: 0px; white-space: break-spaces; background-color: rgba(2, 2, 2, 0.06); text-decoration-thickness: initial; text-decoration-style: initial; text-decoration-color: initial;&quot;&gt;.&lt;br&gt;5-producto&lt;/span&gt;&lt;span style=&quot;margin: 0px; padding: 0px; border: 0px; font-weight: 400; font-style: normal; font-family: &amp;quot;gg sans&amp;quot;, &amp;quot;Noto Sans&amp;quot;, &amp;quot;Helvetica Neue&amp;quot;, Helvetica, Arial, sans-serif; font-size: 16px; vertical-align: baseline; outline: 0px; color: rgb(219, 222, 225); font-variant-ligatures: normal; font-variant-caps: normal; letter-spacing: normal; orphans: 2; text-align: left; text-indent: 0px; text-transform: none; widows: 2; word-spacing: 0px; -webkit-text-stroke-width: 0px; white-space: break-spaces; background-color: rgba(2, 2, 2, 0.06); text-decoration-thickness: initial; text-decoration-style: initial; text-decoration-color: initial;&quot;&gt;(crema&lt;/span&gt;&lt;span style=&quot;margin: 0px; padding: 0px; border: 0px; font-weight: 400; font-style: normal; font-family: &amp;quot;gg sans&amp;quot;, &amp;quot;Noto Sans&amp;quot;, &amp;quot;Helvetica Neue&amp;quot;, Helvetica, Arial, sans-serif; font-size: 16px; vertical-align: baseline; outline: 0px; color: rgb(219, 222, 225); font-variant-ligatures: normal; font-variant-caps: normal; letter-spacing: normal; orphans: 2; text-align: left; text-indent: 0px; text-transform: none; widows: 2; word-spacing: 0px; -webkit-text-stroke-width: 0px; white-space: break-spaces; background-color: rgba(2, 2, 2, 0.06); text-decoration-thickness: initial; text-decoration-style: initial; text-decoration-color: initial;&quot;&gt;,450&lt;/span&gt;&lt;span style=&quot;margin: 0px; padding: 0px; border: 0px; font-weight: 400; font-style: normal; font-family: &amp;quot;gg sans&amp;quot;, &amp;quot;Noto Sans&amp;quot;, &amp;quot;Helvetica Neue&amp;quot;, Helvetica, Arial, sans-serif; font-size: 16px; vertical-align: baseline; outline: 0px; color: rgb(219, 222, 225); font-variant-ligatures: normal; font-variant-caps: normal; letter-spacing: normal; orphans: 2; text-align: left; text-indent: 0px; text-transform: none; widows: 2; word-spacing: 0px; -webkit-text-stroke-width: 0px; white-space: break-spaces; background-color: rgba(2, 2, 2, 0.06); text-decoration-thickness: initial; text-decoration-style: initial; text-decoration-color: initial;&quot;&gt;)&lt;/span&gt;&lt;span style=&quot;margin: 0px; padding: 0px; border: 0px; font-weight: 400; font-style: normal; font-family: &amp;quot;gg sans&amp;quot;, &amp;quot;Noto Sans&amp;quot;, &amp;quot;Helvetica Neue&amp;quot;, Helvetica, Arial, sans-serif; font-size: 16px; vertical-align: baseline; outline: 0px; color: rgb(219, 222, 225); font-variant-ligatures: normal; font-variant-caps: normal; letter-spacing: normal; orphans: 2; text-align: left; text-indent: 0px; text-transform: none; widows: 2; word-spacing: 0px; -webkit-text-stroke-width: 0px; white-space: break-spaces; background-color: rgba(2, 2, 2, 0.06); text-decoration-thickness: initial; text-decoration-style: initial; text-decoration-color: initial;&quot;&gt;.&lt;br&gt;6-producto&lt;/span&gt;&lt;span style=&quot;margin: 0px; padding: 0px; border: 0px; font-weight: 400; font-style: normal; font-family: &amp;quot;gg sans&amp;quot;, &amp;quot;Noto Sans&amp;quot;, &amp;quot;Helvetica Neue&amp;quot;, Helvetica, Arial, sans-serif; font-size: 16px; vertical-align: baseline; outline: 0px; color: rgb(219, 222, 225); font-variant-ligatures: normal; font-variant-caps: normal; letter-spacing: normal; orphans: 2; text-align: left; text-indent: 0px; text-transform: none; widows: 2; word-spacing: 0px; -webkit-text-stroke-width: 0px; white-space: break-spaces; background-color: rgba(2, 2, 2, 0.06); text-decoration-thickness: initial; text-decoration-style: initial; text-decoration-color: initial;&quot;&gt;(agua&lt;/span&gt;&lt;span style=&quot;margin: 0px; padding: 0px; border: 0px; font-weight: 400; font-style: normal; font-family: &amp;quot;gg sans&amp;quot;, &amp;quot;Noto Sans&amp;quot;, &amp;quot;Helvetica Neue&amp;quot;, Helvetica, Arial, sans-serif; font-size: 16px; vertical-align: baseline; outline: 0px; color: rgb(219, 222, 225); font-variant-ligatures: normal; font-variant-caps: normal; letter-spacing: normal; orphans: 2; text-align: left; text-indent: 0px; text-transform: none; widows: 2; word-spacing: 0px; -webkit-text-stroke-width: 0px; white-space: break-spaces; background-color: rgba(2, 2, 2, 0.06); text-decoration-thickness: initial; text-decoration-style: initial; text-decoration-color: initial;&quot;&gt;,120&lt;/span&gt;&lt;span style=&quot;margin: 0px; padding: 0px; border: 0px; font-weight: 400; font-style: normal; font-family: &amp;quot;gg sans&amp;quot;, &amp;quot;Noto Sans&amp;quot;, &amp;quot;Helvetica Neue&amp;quot;, Helvetica, Arial, sans-serif; font-size: 16px; vertical-align: baseline; outline: 0px; color: rgb(219, 222, 225); font-variant-ligatures: normal; font-variant-caps: normal; letter-spacing: normal; orphans: 2; text-align: left; text-indent: 0px; text-transform: none; widows: 2; word-spacing: 0px; -webkit-text-stroke-width: 0px; white-space: break-spaces; background-color: rgba(2, 2, 2, 0.06); text-decoration-thickness: initial; text-decoration-style: initial; text-decoration-color: initial;&quot;&gt;)&lt;/span&gt;&lt;span style=&quot;margin: 0px; padding: 0px; border: 0px; font-weight: 400; font-style: normal; font-family: &amp;quot;gg sans&amp;quot;, &amp;quot;Noto Sans&amp;quot;, &amp;quot;Helvetica Neue&amp;quot;, Helvetica, Arial, sans-serif; font-size: 16px; vertical-align: baseline; outline: 0px; color: rgb(219, 222, 225); font-variant-ligatures: normal; font-variant-caps: normal; letter-spacing: normal; orphans: 2; text-align: left; text-indent: 0px; text-transform: none; widows: 2; word-spacing: 0px; -webkit-text-stroke-width: 0px; white-space: break-spaces; background-color: rgba(2, 2, 2, 0.06); text-decoration-thickness: initial; text-decoration-style: initial; text-decoration-color: initial;&quot;&gt;.&lt;br&gt;7-producto&lt;/span&gt;&lt;span style=&quot;margin: 0px; padding: 0px; border: 0px; font-weight: 400; font-style: normal; font-family: &amp;quot;gg sans&amp;quot;, &amp;quot;Noto Sans&amp;quot;, &amp;quot;Helvetica Neue&amp;quot;, Helvetica, Arial, sans-serif; font-size: 16px; vertical-align: baseline; outline: 0px; color: rgb(219, 222, 225); font-variant-ligatures: normal; font-variant-caps: normal; letter-spacing: normal; orphans: 2; text-align: left; text-indent: 0px; text-transform: none; widows: 2; word-spacing: 0px; -webkit-text-stroke-width: 0px; white-space: break-spaces; background-color: rgba(2, 2, 2, 0.06); text-decoration-thickness: initial; text-decoration-style: initial; text-decoration-color: initial;&quot;&gt;(vino&lt;/span&gt;&lt;span style=&quot;margin: 0px; padding: 0px; border: 0px; font-weight: 400; font-style: normal; font-family: &amp;quot;gg sans&amp;quot;, &amp;quot;Noto Sans&amp;quot;, &amp;quot;Helvetica Neue&amp;quot;, Helvetica, Arial, sans-serif; font-size: 16px; vertical-align: baseline; outline: 0px; color: rgb(219, 222, 225); font-variant-ligatures: normal; font-variant-caps: normal; letter-spacing: normal; orphans: 2; text-align: left; text-indent: 0px; text-transform: none; widows: 2; word-spacing: 0px; -webkit-text-stroke-width: 0px; white-space: break-spaces; background-color: rgba(2, 2, 2, 0.06); text-decoration-thickness: initial; text-decoration-style: initial; text-decoration-color: initial;&quot;&gt;,290&lt;/span&gt;&lt;span style=&quot;margin: 0px; padding: 0px; border: 0px; font-weight: 400; font-style: normal; font-family: &amp;quot;gg sans&amp;quot;, &amp;quot;Noto Sans&amp;quot;, &amp;quot;Helvetica Neue&amp;quot;, Helvetica, Arial, sans-serif; font-size: 16px; vertical-align: baseline; outline: 0px; color: rgb(219, 222, 225); font-variant-ligatures: normal; font-variant-caps: normal; letter-spacing: normal; orphans: 2; text-align: left; text-indent: 0px; text-transform: none; widows: 2; word-spacing: 0px; -webkit-text-stroke-width: 0px; white-space: break-spaces; background-color: rgba(2, 2, 2, 0.06); text-decoration-thickness: initial; text-decoration-style: initial; text-decoration-color: initial;&quot;&gt;)&lt;/span&gt;&lt;span style=&quot;margin: 0px; padding: 0px; border: 0px; font-weight: 400; font-style: normal; font-family: &amp;quot;gg sans&amp;quot;, &amp;quot;Noto Sans&amp;quot;, &amp;quot;Helvetica Neue&amp;quot;, Helvetica, Arial, sans-serif; font-size: 16px; vertical-align: baseline; outline: 0px; color: rgb(219, 222, 225); font-variant-ligatures: normal; font-variant-caps: normal; letter-spacing: normal; orphans: 2; text-align: left; text-indent: 0px; text-transform: none; widows: 2; word-spacing: 0px; -webkit-text-stroke-width: 0px; white-space: break-spaces; background-color: rgba(2, 2, 2, 0.06); text-decoration-thickness: initial; text-decoration-style: initial; text-decoration-color: initial;&quot;&gt;.&lt;br&gt;8-producto&lt;/span&gt;&lt;span style=&quot;margin: 0px; padding: 0px; border: 0px; font-weight: 400; font-style: normal; font-family: &amp;quot;gg sans&amp;quot;, &amp;quot;Noto Sans&amp;quot;, &amp;quot;Helvetica Neue&amp;quot;, Helvetica, Arial, sans-serif; font-size: 16px; vertical-align: baseline; outline: 0px; color: rgb(219, 222, 225); font-variant-ligatures: normal; font-variant-caps: normal; letter-spacing: normal; orphans: 2; text-align: left; text-indent: 0px; text-transform: none; widows: 2; word-spacing: 0px; -webkit-text-stroke-width: 0px; white-space: break-spaces; background-color: rgba(2, 2, 2, 0.06); text-decoration-thickness: initial; text-decoration-style: initial; text-decoration-color: initial;&quot;&gt;(soda&lt;/span&gt;&lt;span style=&quot;margin: 0px; padding: 0px; border: 0px; font-weight: 400; font-style: normal; font-family: &amp;quot;gg sans&amp;quot;, &amp;quot;Noto Sans&amp;quot;, &amp;quot;Helvetica Neue&amp;quot;, Helvetica, Arial, sans-serif; font-size: 16px; vertical-align: baseline; outline: 0px; color: rgb(219, 222, 225); font-variant-ligatures: normal; font-variant-caps: normal; letter-spacing: normal; orphans: 2; text-align: left; text-indent: 0px; text-transform: none; widows: 2; word-spacing: 0px; -webkit-text-stroke-width: 0px; white-space: break-spaces; background-color: rgba(2, 2, 2, 0.06); text-decoration-thickness: initial; text-decoration-style: initial; text-decoration-color: initial;&quot;&gt;,145&lt;/span&gt;&lt;span style=&quot;margin: 0px; padding: 0px; border: 0px; font-weight: 400; font-style: normal; font-family: &amp;quot;gg sans&amp;quot;, &amp;quot;Noto Sans&amp;quot;, &amp;quot;Helvetica Neue&amp;quot;, Helvetica, Arial, sans-serif; font-size: 16px; vertical-align: baseline; outline: 0px; color: rgb(219, 222, 225); font-variant-ligatures: normal; font-variant-caps: normal; letter-spacing: normal; orphans: 2; text-align: left; text-indent: 0px; text-transform: none; widows: 2; word-spacing: 0px; -webkit-text-stroke-width: 0px; white-space: break-spaces; background-color: rgba(2, 2, 2, 0.06); text-decoration-thickness: initial; text-decoration-style: initial; text-decoration-color: initial;&quot;&gt;)&lt;/span&gt;&lt;span style=&quot;margin: 0px; padding: 0px; border: 0px; font-weight: 400; font-style: normal; font-family: &amp;quot;gg sans&amp;quot;, &amp;quot;Noto Sans&amp;quot;, &amp;quot;Helvetica Neue&amp;quot;, Helvetica, Arial, sans-serif; font-size: 16px; vertical-align: baseline; outline: 0px; color: rgb(219, 222, 225); font-variant-ligatures: normal; font-variant-caps: normal; letter-spacing: normal; orphans: 2; text-align: left; text-indent: 0px; text-transform: none; widows: 2; word-spacing: 0px; -webkit-text-stroke-width: 0px; white-space: break-spaces; background-color: rgba(2, 2, 2, 0.06); text-decoration-thickness: initial; text-decoration-style: initial; text-decoration-color: initial;&quot;&gt;.&lt;br&gt;9-compra&lt;/span&gt;&lt;span style=&quot;margin: 0px; padding: 0px; border: 0px; font-weight: 400; font-style: normal; font-family: &amp;quot;gg sans&amp;quot;, &amp;quot;Noto Sans&amp;quot;, &amp;quot;Helvetica Neue&amp;quot;, Helvetica, Arial, sans-serif; font-size: 16px; vertical-align: baseline; outline: 0px; color: rgb(219, 222, 225); font-variant-ligatures: normal; font-variant-caps: normal; letter-spacing: normal; orphans: 2; text-align: left; text-indent: 0px; text-transform: none; widows: 2; word-spacing: 0px; -webkit-text-stroke-width: 0px; white-space: break-spaces; background-color: rgba(2, 2, 2, 0.06); text-decoration-thickness: initial; text-decoration-style: initial; text-decoration-color: initial;&quot;&gt;(&lt;/span&gt;&lt;span style=&quot;margin: 0px; padding: 0px; border: 0px; font-weight: 400; font-style: normal; font-family: &amp;quot;gg sans&amp;quot;, &amp;quot;Noto Sans&amp;quot;, &amp;quot;Helvetica Neue&amp;quot;, Helvetica, Arial, sans-serif; font-size: 16px; vertical-align: baseline; outline: 0px; color: rgb(219, 222, 225); font-variant-ligatures: normal; font-variant-caps: normal; letter-spacing: normal; orphans: 2; text-align: left; text-indent: 0px; text-transform: none; widows: 2; word-spacing: 0px; -webkit-text-stroke-width: 0px; white-space: break-spaces; background-color: rgba(2, 2, 2, 0.06); text-decoration-thickness: initial; text-decoration-style: initial; text-decoration-color: initial;&quot;&gt;[&lt;/span&gt;&lt;span style=&quot;margin: 0px; padding: 0px; border: 0px; font-weight: 400; font-style: normal; font-family: &amp;quot;gg sans&amp;quot;, &amp;quot;Noto Sans&amp;quot;, &amp;quot;Helvetica Neue&amp;quot;, Helvetica, Arial, sans-serif; font-size: 16px; vertical-align: baseline; outline: 0px; color: rgb(219, 222, 225); font-variant-ligatures: normal; font-variant-caps: normal; letter-spacing: normal; orphans: 2; text-align: left; text-indent: 0px; text-transform: none; widows: 2; word-spacing: 0px; -webkit-text-stroke-width: 0px; white-space: break-spaces; background-color: rgba(2, 2, 2, 0.06); text-decoration-thickness: initial; text-decoration-style: initial; text-decoration-color: initial;&quot;&gt;]&lt;/span&gt;&lt;span style=&quot;margin: 0px; padding: 0px; border: 0px; font-weight: 400; font-style: normal; font-family: &amp;quot;gg sans&amp;quot;, &amp;quot;Noto Sans&amp;quot;, &amp;quot;Helvetica Neue&amp;quot;, Helvetica, Arial, sans-serif; font-size: 16px; vertical-align: baseline; outline: 0px; color: rgb(219, 222, 225); font-variant-ligatures: normal; font-variant-caps: normal; letter-spacing: normal; orphans: 2; text-align: left; text-indent: 0px; text-transform: none; widows: 2; word-spacing: 0px; -webkit-text-stroke-width: 0px; white-space: break-spaces; background-color: rgba(2, 2, 2, 0.06); text-decoration-thickness: initial; text-decoration-style: initial; text-decoration-color: initial;&quot;&gt;,&lt;/span&gt;&lt;em style=&quot;margin: 0px; padding: 0px; border: 0px; font-weight: 400; font-style: italic; font-family: &amp;quot;gg sans&amp;quot;, &amp;quot;Noto Sans&amp;quot;, &amp;quot;Helvetica Neue&amp;quot;, Helvetica, Arial, sans-serif; font-size: 16px; vertical-align: baseline; color: rgb(219, 222, 225); font-variant-ligatures: normal; font-variant-caps: normal; letter-spacing: normal; orphans: 2; text-align: left; text-indent: 0px; text-transform: none; widows: 2; word-spacing: 0px; -webkit-text-stroke-width: 0px; white-space: break-spaces; background-color: rgba(2, 2, 2, 0.06); text-decoration-thickness: initial; text-decoration-style: initial; text-decoration-color: initial;&quot;&gt;&lt;span style=&quot;margin: 0px; padding: 0px; border: 0px; font-weight: inherit; font-style: inherit; font-family: inherit; font-size: 16px; vertical-align: baseline; outline: 0px;&quot;&gt;,&lt;/span&gt;&lt;span style=&quot;margin: 0px; padding: 0px; border: 0px; font-weight: inherit; font-style: inherit; font-family: inherit; font-size: 16px; vertical-align: baseline; outline: 0px;&quot;&gt;[&lt;/span&gt;&lt;span style=&quot;margin: 0px; padding: 0px; border: 0px; font-weight: inherit; font-style: inherit; font-family: inherit; font-size: 16px; vertical-align: baseline; outline: 0px;&quot;&gt;]&lt;/span&gt;&lt;span style=&quot;margin: 0px; padding: 0px; border: 0px; font-weight: inherit; font-style: inherit; font-family: inherit; font-size: 16px; vertical-align: baseline; outline: 0px;&quot;&gt;)&lt;/span&gt;&lt;span style=&quot;margin: 0px; padding: 0px; border: 0px; font-weight: inherit; font-style: inherit; font-family: inherit; font-size: 16px; vertical-align: baseline; outline: 0px;&quot;&gt;.&lt;br&gt;10-compra&lt;/span&gt;&lt;span style=&quot;margin: 0px; padding: 0px; border: 0px; font-weight: inherit; font-style: inherit; font-family: inherit; font-size: 16px; vertical-align: baseline; outline: 0px;&quot;&gt;(&lt;/span&gt;&lt;span style=&quot;margin: 0px; padding: 0px; border: 0px; font-weight: inherit; font-style: inherit; font-family: inherit; font-size: 16px; vertical-align: baseline; outline: 0px;&quot;&gt;[C&lt;/span&gt;&lt;span style=&quot;margin: 0px; padding: 0px; border: 0px; font-weight: inherit; font-style: inherit; font-family: inherit; font-size: 16px; vertical-align: baseline; outline: 0px;&quot;&gt;|L&lt;/span&gt;&lt;span style=&quot;margin: 0px; padding: 0px; border: 0px; font-weight: inherit; font-style: inherit; font-family: inherit; font-size: 16px; vertical-align: baseline; outline: 0px;&quot;&gt;]&lt;/span&gt;&lt;span style=&quot;margin: 0px; padding: 0px; border: 0px; font-weight: inherit; font-style: inherit; font-family: inherit; font-size: 16px; vertical-align: baseline; outline: 0px;&quot;&gt;,I&lt;/span&gt;&lt;span style=&quot;margin: 0px; padding: 0px; border: 0px; font-weight: inherit; font-style: inherit; font-family: inherit; font-size: 16px; vertical-align: baseline; outline: 0px;&quot;&gt;,&lt;/span&gt;&lt;span style=&quot;margin: 0px; padding: 0px; border: 0px; font-weight: inherit; font-style: inherit; font-family: inherit; font-size: 16px; vertical-align: baseline; outline: 0px;&quot;&gt;[C&lt;/span&gt;&lt;span style=&quot;margin: 0px; padding: 0px; border: 0px; font-weight: inherit; font-style: inherit; font-family: inherit; font-size: 16px; vertical-align: baseline; outline: 0px;&quot;&gt;|R&lt;/span&gt;&lt;span style=&quot;margin: 0px; padding: 0px; border: 0px; font-weight: inherit; font-style: inherit; font-family: inherit; font-size: 16px; vertical-align: baseline; outline: 0px;&quot;&gt;]&lt;/span&gt;&lt;span style=&quot;margin: 0px; padding: 0px; border: 0px; font-weight: inherit; font-style: inherit; font-family: inherit; font-size: 16px; vertical-align: baseline; outline: 0px;&quot;&gt;)&lt;/span&gt;&lt;span style=&quot;margin: 0px; padding: 0px; border: 0px; font-weight: inherit; font-style: inherit; font-family: inherit; font-size: 16px; vertical-align: baseline; outline: 0px;&quot;&gt;:&lt;/span&gt;&lt;span style=&quot;margin: 0px; padding: 0px; border: 0px; font-weight: inherit; font-style: inherit; font-family: inherit; font-size: 16px; vertical-align: baseline; outline: 0px;&quot;&gt;-producto&lt;/span&gt;&lt;span style=&quot;margin: 0px; padding: 0px; border: 0px; font-weight: inherit; font-style: inherit; font-family: inherit; font-size: 16px; vertical-align: baseline; outline: 0px;&quot;&gt;(C&lt;/span&gt;&lt;span style=&quot;margin: 0px; padding: 0px; border: 0px; font-weight: inherit; font-style: inherit; font-family: inherit; font-size: 16px; vertical-align: baseline; outline: 0px;&quot;&gt;,Pre&lt;/span&gt;&lt;span style=&quot;margin: 0px; padding: 0px; border: 0px; font-weight: inherit; font-style: inherit; font-family: inherit; font-size: 16px; vertical-align: baseline; outline: 0px;&quot;&gt;)&lt;/span&gt;&lt;span style=&quot;margin: 0px; padding: 0px; border: 0px; font-weight: inherit; font-style: inherit; font-family: inherit; font-size: 16px; vertical-align: baseline; outline: 0px;&quot;&gt;,Pre&lt;/span&gt;&lt;span style=&quot;margin: 0px; padding: 0px; border: 0px; font-weight: inherit; font-style: inherit; font-family: inherit; font-size: 16px; vertical-align: baseline; outline: 0px;&quot;&gt;=&lt;/span&gt;&lt;span style=&quot;margin: 0px; padding: 0px; border: 0px; font-weight: inherit; font-style: inherit; font-family: inherit; font-size: 16px; vertical-align: baseline; outline: 0px;&quot;&gt;&amp;lt;I&lt;/span&gt;&lt;span style=&quot;margin: 0px; padding: 0px; border: 0px; font-weight: inherit; font-style: inherit; font-family: inherit; font-size: 16px; vertical-align: baseline; outline: 0px;&quot;&gt;,Z is I -&lt;/span&gt;&lt;span style=&quot;margin: 0px; padding: 0px; border: 0px; font-weight: inherit; font-style: inherit; font-family: inherit; font-size: 16px; vertical-align: baseline; outline: 0px;&quot;&gt;Pre&lt;/span&gt;&lt;span style=&quot;margin: 0px; padding: 0px; border: 0px; font-weight: inherit; font-style: inherit; font-family: inherit; font-size: 16px; vertical-align: baseline; outline: 0px;&quot;&gt;,compra&lt;/span&gt;&lt;span style=&quot;margin: 0px; padding: 0px; border: 0px; font-weight: inherit; font-style: inherit; font-family: inherit; font-size: 16px; vertical-align: baseline; outline: 0px;&quot;&gt;(L&lt;/span&gt;&lt;span style=&quot;margin: 0px; padding: 0px; border: 0px; font-weight: inherit; font-style: inherit; font-family: inherit; font-size: 16px; vertical-align: baseline; outline: 0px;&quot;&gt;,Z&lt;/span&gt;&lt;span style=&quot;margin: 0px; padding: 0px; border: 0px; font-weight: inherit; font-style: inherit; font-family: inherit; font-size: 16px; vertical-align: baseline; outline: 0px;&quot;&gt;,R&lt;/span&gt;&lt;span style=&quot;margin: 0px; padding: 0px; border: 0px; font-weight: inherit; font-style: inherit; font-family: inherit; font-size: 16px; vertical-align: baseline; outline: 0px;&quot;&gt;)&lt;/span&gt;&lt;span style=&quot;margin: 0px; padding: 0px; border: 0px; font-weight: inherit; font-style: inherit; font-family: inherit; font-size: 16px; vertical-align: baseline; outline: 0px;&quot;&gt;.&lt;br&gt;11-compra&lt;/span&gt;&lt;span style=&quot;margin: 0px; padding: 0px; border: 0px; font-weight: inherit; font-style: inherit; font-family: inherit; font-size: 16px; vertical-align: baseline; outline: 0px;&quot;&gt;(_&lt;/span&gt;&lt;/em&gt;&lt;span style=&quot;margin: 0px; padding: 0px; border: 0px; font-weight: 400; font-style: normal; font-family: &amp;quot;gg sans&amp;quot;, &amp;quot;Noto Sans&amp;quot;, &amp;quot;Helvetica Neue&amp;quot;, Helvetica, Arial, sans-serif; font-size: 16px; vertical-align: baseline; outline: 0px; color: rgb(219, 222, 225); font-variant-ligatures: normal; font-variant-caps: normal; letter-spacing: normal; orphans: 2; text-align: left; text-indent: 0px; text-transform: none; widows: 2; word-spacing: 0px; -webkit-text-stroke-width: 0px; white-space: break-spaces; background-color: rgba(2, 2, 2, 0.06); text-decoration-thickness: initial; text-decoration-style: initial; text-decoration-color: initial;&quot;&gt;,&lt;/span&gt;&lt;span style=&quot;margin: 0px; padding: 0px; border: 0px; font-weight: 400; font-style: normal; font-family: &amp;quot;gg sans&amp;quot;, &amp;quot;Noto Sans&amp;quot;, &amp;quot;Helvetica Neue&amp;quot;, Helvetica, Arial, sans-serif; font-size: 16px; vertical-align: baseline; outline: 0px; color: rgb(219, 222, 225); font-variant-ligatures: normal; font-variant-caps: normal; letter-spacing: normal; orphans: 2; text-align: left; text-indent: 0px; text-transform: none; widows: 2; word-spacing: 0px; -webkit-text-stroke-width: 0px; white-space: break-spaces; background-color: rgba(2, 2, 2, 0.06); text-decoration-thickness: initial; text-decoration-style: initial; text-decoration-color: initial;&quot;&gt;_&lt;/span&gt;&lt;span style=&quot;margin: 0px; padding: 0px; border: 0px; font-weight: 400; font-style: normal; font-family: &amp;quot;gg sans&amp;quot;, &amp;quot;Noto Sans&amp;quot;, &amp;quot;Helvetica Neue&amp;quot;, Helvetica, Arial, sans-serif; font-size: 16px; vertical-align: baseline; outline: 0px; color: rgb(219, 222, 225); font-variant-ligatures: normal; font-variant-caps: normal; letter-spacing: normal; orphans: 2; text-align: left; text-indent: 0px; text-transform: none; widows: 2; word-spacing: 0px; -webkit-text-stroke-width: 0px; white-space: break-spaces; background-color: rgba(2, 2, 2, 0.06); text-decoration-thickness: initial; text-decoration-style: initial; text-decoration-color: initial;&quot;&gt;,&lt;/span&gt;&lt;span style=&quot;margin: 0px; padding: 0px; border: 0px; font-weight: 400; font-style: normal; font-family: &amp;quot;gg sans&amp;quot;, &amp;quot;Noto Sans&amp;quot;, &amp;quot;Helvetica Neue&amp;quot;, Helvetica, Arial, sans-serif; font-size: 16px; vertical-align: baseline; outline: 0px; color: rgb(219, 222, 225); font-variant-ligatures: normal; font-variant-caps: normal; letter-spacing: normal; orphans: 2; text-align: left; text-indent: 0px; text-transform: none; widows: 2; word-spacing: 0px; -webkit-text-stroke-width: 0px; white-space: break-spaces; background-color: rgba(2, 2, 2, 0.06); text-decoration-thickness: initial; text-decoration-style: initial; text-decoration-color: initial;&quot;&gt;[&lt;/span&gt;&lt;span style=&quot;margin: 0px; padding: 0px; border: 0px; font-weight: 400; font-style: normal; font-family: &amp;quot;gg sans&amp;quot;, &amp;quot;Noto Sans&amp;quot;, &amp;quot;Helvetica Neue&amp;quot;, Helvetica, Arial, sans-serif; font-size: 16px; vertical-align: baseline; outline: 0px; color: rgb(219, 222, 225); font-variant-ligatures: normal; font-variant-caps: normal; letter-spacing: normal; orphans: 2; text-align: left; text-indent: 0px; text-transform: none; widows: 2; word-spacing: 0px; -webkit-text-stroke-width: 0px; white-space: break-spaces; background-color: rgba(2, 2, 2, 0.06); text-decoration-thickness: initial; text-decoration-style: initial; text-decoration-color: initial;&quot;&gt;]&lt;/span&gt;&lt;span style=&quot;margin: 0px; padding: 0px; border: 0px; font-weight: 400; font-style: normal; font-family: &amp;quot;gg sans&amp;quot;, &amp;quot;Noto Sans&amp;quot;, &amp;quot;Helvetica Neue&amp;quot;, Helvetica, Arial, sans-serif; font-size: 16px; vertical-align: baseline; outline: 0px; color: rgb(219, 222, 225); font-variant-ligatures: normal; font-variant-caps: normal; letter-spacing: normal; orphans: 2; text-align: left; text-indent: 0px; text-transform: none; widows: 2; word-spacing: 0px; -webkit-text-stroke-width: 0px; white-space: break-spaces; background-color: rgba(2, 2, 2, 0.06); text-decoration-thickness: initial; text-decoration-style: initial; text-decoration-color: initial;&quot;&gt;)&lt;/span&gt;&lt;span style=&quot;margin: 0px; padding: 0px; border: 0px; font-weight: 400; font-style: normal; font-family: &amp;quot;gg sans&amp;quot;, &amp;quot;Noto Sans&amp;quot;, &amp;quot;Helvetica Neue&amp;quot;, Helvetica, Arial, sans-serif; font-size: 16px; vertical-align: baseline; outline: 0px; color: rgb(219, 222, 225); font-variant-ligatures: normal; font-variant-caps: normal; letter-spacing: normal; orphans: 2; text-align: left; text-indent: 0px; text-transform: none; widows: 2; word-spacing: 0px; -webkit-text-stroke-width: 0px; white-space: break-spaces; background-color: rgba(2, 2, 2, 0.06); text-decoration-thickness: initial; text-decoration-style: initial; text-decoration-color: initial;&quot;&gt;.&lt;/span&gt;" style="text;whiteSpace=wrap;html=1;" vertex="1" parent="1">
          <mxGeometry x="10" y="10" width="590" height="220" as="geometry" />
        </mxCell>
        <mxCell id="njSxedjWznday7_HgHKP-3" value="?-compra([leche,vino,jabon],500,R)" style="text;html=1;align=center;verticalAlign=middle;resizable=0;points=[];autosize=1;strokeColor=none;fillColor=none;" vertex="1" parent="1">
          <mxGeometry x="20" y="250" width="210" height="30" as="geometry" />
        </mxCell>
        <mxCell id="njSxedjWznday7_HgHKP-4" value="" style="endArrow=none;html=1;rounded=0;" edge="1" parent="1">
          <mxGeometry width="50" height="50" relative="1" as="geometry">
            <mxPoint x="60" y="280" as="sourcePoint" />
            <mxPoint x="210" y="280" as="targetPoint" />
            <Array as="points">
              <mxPoint x="70" y="300" />
              <mxPoint x="180" y="300" />
              <mxPoint x="200" y="300" />
            </Array>
          </mxGeometry>
        </mxCell>
        <mxCell id="njSxedjWznday7_HgHKP-5" value="" style="endArrow=classic;html=1;rounded=0;" edge="1" parent="1">
          <mxGeometry width="50" height="50" relative="1" as="geometry">
            <mxPoint x="130" y="300" as="sourcePoint" />
            <mxPoint x="30" y="340" as="targetPoint" />
            <Array as="points">
              <mxPoint x="130" y="320" />
              <mxPoint x="30" y="320" />
            </Array>
          </mxGeometry>
        </mxCell>
        <mxCell id="njSxedjWznday7_HgHKP-6" value="10" style="ellipse;whiteSpace=wrap;html=1;aspect=fixed;" vertex="1" parent="1">
          <mxGeometry x="20" y="340" width="30" height="30" as="geometry" />
        </mxCell>
        <mxCell id="njSxedjWznday7_HgHKP-7" value="&lt;em style=&quot;border: 0px; font-variant-ligatures: normal; font-variant-caps: normal; font-weight: 400; letter-spacing: normal; orphans: 2; text-align: left; text-indent: 0px; text-transform: none; widows: 2; word-spacing: 0px; -webkit-text-stroke-width: 0px; white-space: break-spaces; text-decoration-thickness: initial; text-decoration-style: initial; text-decoration-color: initial; margin: 0px; padding: 0px; font-style: italic; font-family: &amp;quot;gg sans&amp;quot;, &amp;quot;Noto Sans&amp;quot;, &amp;quot;Helvetica Neue&amp;quot;, Helvetica, Arial, sans-serif; font-size: 16px; vertical-align: baseline; color: rgb(219, 222, 225); background-color: rgba(2, 2, 2, 0.06);&quot;&gt;&lt;span style=&quot;border: 0px; margin: 0px; padding: 0px; font-weight: inherit; font-style: inherit; font-family: inherit; font-size: 16px; vertical-align: baseline; outline: 0px;&quot;&gt;compra&lt;/span&gt;&lt;span style=&quot;border: 0px; margin: 0px; padding: 0px; font-weight: inherit; font-style: inherit; font-family: inherit; font-size: 16px; vertical-align: baseline; outline: 0px;&quot;&gt;(&lt;/span&gt;&lt;span style=&quot;border: 0px; margin: 0px; padding: 0px; font-weight: inherit; font-style: inherit; font-family: inherit; font-size: 16px; vertical-align: baseline; outline: 0px;&quot;&gt;[C&lt;/span&gt;&lt;span style=&quot;border: 0px; margin: 0px; padding: 0px; font-weight: inherit; font-style: inherit; font-family: inherit; font-size: 16px; vertical-align: baseline; outline: 0px;&quot;&gt;|L&lt;/span&gt;&lt;span style=&quot;border: 0px; margin: 0px; padding: 0px; font-weight: inherit; font-style: inherit; font-family: inherit; font-size: 16px; vertical-align: baseline; outline: 0px;&quot;&gt;]&lt;/span&gt;&lt;span style=&quot;border: 0px; margin: 0px; padding: 0px; font-weight: inherit; font-style: inherit; font-family: inherit; font-size: 16px; vertical-align: baseline; outline: 0px;&quot;&gt;,I&lt;/span&gt;&lt;span style=&quot;border: 0px; margin: 0px; padding: 0px; font-weight: inherit; font-style: inherit; font-family: inherit; font-size: 16px; vertical-align: baseline; outline: 0px;&quot;&gt;,&lt;/span&gt;&lt;span style=&quot;border: 0px; margin: 0px; padding: 0px; font-weight: inherit; font-style: inherit; font-family: inherit; font-size: 16px; vertical-align: baseline; outline: 0px;&quot;&gt;[C&lt;/span&gt;&lt;span style=&quot;border: 0px; margin: 0px; padding: 0px; font-weight: inherit; font-style: inherit; font-family: inherit; font-size: 16px; vertical-align: baseline; outline: 0px;&quot;&gt;|R&lt;/span&gt;&lt;span style=&quot;border: 0px; margin: 0px; padding: 0px; font-weight: inherit; font-style: inherit; font-family: inherit; font-size: 16px; vertical-align: baseline; outline: 0px;&quot;&gt;]&lt;/span&gt;&lt;span style=&quot;border: 0px; margin: 0px; padding: 0px; font-weight: inherit; font-style: inherit; font-family: inherit; font-size: 16px; vertical-align: baseline; outline: 0px;&quot;&gt;)&lt;/span&gt;&lt;span style=&quot;border: 0px; margin: 0px; padding: 0px; font-weight: inherit; font-style: inherit; font-family: inherit; font-size: 16px; vertical-align: baseline; outline: 0px;&quot;&gt;:&lt;/span&gt;&lt;span style=&quot;border: 0px; margin: 0px; padding: 0px; font-weight: inherit; font-style: inherit; font-family: inherit; font-size: 16px; vertical-align: baseline; outline: 0px;&quot;&gt;-producto&lt;/span&gt;&lt;span style=&quot;border: 0px; margin: 0px; padding: 0px; font-weight: inherit; font-style: inherit; font-family: inherit; font-size: 16px; vertical-align: baseline; outline: 0px;&quot;&gt;(C&lt;/span&gt;&lt;span style=&quot;border: 0px; margin: 0px; padding: 0px; font-weight: inherit; font-style: inherit; font-family: inherit; font-size: 16px; vertical-align: baseline; outline: 0px;&quot;&gt;,Pre&lt;/span&gt;&lt;span style=&quot;border: 0px; margin: 0px; padding: 0px; font-weight: inherit; font-style: inherit; font-family: inherit; font-size: 16px; vertical-align: baseline; outline: 0px;&quot;&gt;)&lt;/span&gt;&lt;span style=&quot;border: 0px; margin: 0px; padding: 0px; font-weight: inherit; font-style: inherit; font-family: inherit; font-size: 16px; vertical-align: baseline; outline: 0px;&quot;&gt;,Pre&lt;/span&gt;&lt;span style=&quot;border: 0px; margin: 0px; padding: 0px; font-weight: inherit; font-style: inherit; font-family: inherit; font-size: 16px; vertical-align: baseline; outline: 0px;&quot;&gt;=&lt;/span&gt;&lt;span style=&quot;border: 0px; margin: 0px; padding: 0px; font-weight: inherit; font-style: inherit; font-family: inherit; font-size: 16px; vertical-align: baseline; outline: 0px;&quot;&gt;&amp;lt;I&lt;/span&gt;&lt;span style=&quot;border: 0px; margin: 0px; padding: 0px; font-weight: inherit; font-style: inherit; font-family: inherit; font-size: 16px; vertical-align: baseline; outline: 0px;&quot;&gt;,Z is I -&lt;/span&gt;&lt;span style=&quot;border: 0px; margin: 0px; padding: 0px; font-weight: inherit; font-style: inherit; font-family: inherit; font-size: 16px; vertical-align: baseline; outline: 0px;&quot;&gt;Pre&lt;/span&gt;&lt;span style=&quot;border: 0px; margin: 0px; padding: 0px; font-weight: inherit; font-style: inherit; font-family: inherit; font-size: 16px; vertical-align: baseline; outline: 0px;&quot;&gt;,compra&lt;/span&gt;&lt;span style=&quot;border: 0px; margin: 0px; padding: 0px; font-weight: inherit; font-style: inherit; font-family: inherit; font-size: 16px; vertical-align: baseline; outline: 0px;&quot;&gt;([vino,jabon]&lt;/span&gt;&lt;span style=&quot;border: 0px; margin: 0px; padding: 0px; font-weight: inherit; font-style: inherit; font-family: inherit; font-size: 16px; vertical-align: baseline; outline: 0px;&quot;&gt;,350&lt;/span&gt;&lt;span style=&quot;border: 0px; margin: 0px; padding: 0px; font-weight: inherit; font-style: inherit; font-family: inherit; font-size: 16px; vertical-align: baseline; outline: 0px;&quot;&gt;,R&lt;/span&gt;&lt;span style=&quot;border: 0px; margin: 0px; padding: 0px; font-weight: inherit; font-style: inherit; font-family: inherit; font-size: 16px; vertical-align: baseline; outline: 0px;&quot;&gt;)&lt;/span&gt;&lt;span style=&quot;border: 0px; margin: 0px; padding: 0px; font-weight: inherit; font-style: inherit; font-family: inherit; font-size: 16px; vertical-align: baseline; outline: 0px;&quot;&gt;.&lt;/span&gt;&lt;/em&gt;" style="text;whiteSpace=wrap;html=1;" vertex="1" parent="1">
          <mxGeometry x="50" y="340" width="770" height="40" as="geometry" />
        </mxCell>
        <mxCell id="njSxedjWznday7_HgHKP-9" value="" style="endArrow=none;html=1;rounded=0;" edge="1" parent="1">
          <mxGeometry width="50" height="50" relative="1" as="geometry">
            <mxPoint x="200" y="370" as="sourcePoint" />
            <mxPoint x="320" y="370" as="targetPoint" />
            <Array as="points">
              <mxPoint x="210" y="390" />
              <mxPoint x="310" y="390" />
            </Array>
          </mxGeometry>
        </mxCell>
        <mxCell id="njSxedjWznday7_HgHKP-10" value="" style="endArrow=classic;html=1;rounded=0;" edge="1" parent="1">
          <mxGeometry width="50" height="50" relative="1" as="geometry">
            <mxPoint x="284" y="390" as="sourcePoint" />
            <mxPoint x="184" y="430" as="targetPoint" />
            <Array as="points">
              <mxPoint x="284" y="410" />
              <mxPoint x="184" y="410" />
            </Array>
          </mxGeometry>
        </mxCell>
        <mxCell id="njSxedjWznday7_HgHKP-13" value="1" style="ellipse;whiteSpace=wrap;html=1;aspect=fixed;" vertex="1" parent="1">
          <mxGeometry x="170" y="430" width="20" height="20" as="geometry" />
        </mxCell>
        <mxCell id="njSxedjWznday7_HgHKP-14" value="&lt;span style=&quot;border: 0px; font-style: normal; font-variant-ligatures: normal; font-variant-caps: normal; font-weight: 400; letter-spacing: normal; orphans: 2; text-align: left; text-indent: 0px; text-transform: none; widows: 2; word-spacing: 0px; -webkit-text-stroke-width: 0px; white-space: break-spaces; text-decoration-thickness: initial; text-decoration-style: initial; text-decoration-color: initial; margin: 0px; padding: 0px; font-family: &amp;quot;gg sans&amp;quot;, &amp;quot;Noto Sans&amp;quot;, &amp;quot;Helvetica Neue&amp;quot;, Helvetica, Arial, sans-serif; font-size: 16px; vertical-align: baseline; outline: 0px; color: rgb(219, 222, 225); background-color: rgba(2, 2, 2, 0.06);&quot;&gt;producto&lt;/span&gt;&lt;span style=&quot;border: 0px; font-style: normal; font-variant-ligatures: normal; font-variant-caps: normal; font-weight: 400; letter-spacing: normal; orphans: 2; text-align: left; text-indent: 0px; text-transform: none; widows: 2; word-spacing: 0px; -webkit-text-stroke-width: 0px; white-space: break-spaces; text-decoration-thickness: initial; text-decoration-style: initial; text-decoration-color: initial; margin: 0px; padding: 0px; font-family: &amp;quot;gg sans&amp;quot;, &amp;quot;Noto Sans&amp;quot;, &amp;quot;Helvetica Neue&amp;quot;, Helvetica, Arial, sans-serif; font-size: 16px; vertical-align: baseline; outline: 0px; color: rgb(219, 222, 225); background-color: rgba(2, 2, 2, 0.06);&quot;&gt;(leche&lt;/span&gt;&lt;span style=&quot;border: 0px; font-style: normal; font-variant-ligatures: normal; font-variant-caps: normal; font-weight: 400; letter-spacing: normal; orphans: 2; text-align: left; text-indent: 0px; text-transform: none; widows: 2; word-spacing: 0px; -webkit-text-stroke-width: 0px; white-space: break-spaces; text-decoration-thickness: initial; text-decoration-style: initial; text-decoration-color: initial; margin: 0px; padding: 0px; font-family: &amp;quot;gg sans&amp;quot;, &amp;quot;Noto Sans&amp;quot;, &amp;quot;Helvetica Neue&amp;quot;, Helvetica, Arial, sans-serif; font-size: 16px; vertical-align: baseline; outline: 0px; color: rgb(219, 222, 225); background-color: rgba(2, 2, 2, 0.06);&quot;&gt;,150&lt;/span&gt;&lt;span style=&quot;border: 0px; font-style: normal; font-variant-ligatures: normal; font-variant-caps: normal; font-weight: 400; letter-spacing: normal; orphans: 2; text-align: left; text-indent: 0px; text-transform: none; widows: 2; word-spacing: 0px; -webkit-text-stroke-width: 0px; white-space: break-spaces; text-decoration-thickness: initial; text-decoration-style: initial; text-decoration-color: initial; margin: 0px; padding: 0px; font-family: &amp;quot;gg sans&amp;quot;, &amp;quot;Noto Sans&amp;quot;, &amp;quot;Helvetica Neue&amp;quot;, Helvetica, Arial, sans-serif; font-size: 16px; vertical-align: baseline; outline: 0px; color: rgb(219, 222, 225); background-color: rgba(2, 2, 2, 0.06);&quot;&gt;)&lt;/span&gt;&lt;span style=&quot;border: 0px; font-style: normal; font-variant-ligatures: normal; font-variant-caps: normal; font-weight: 400; letter-spacing: normal; orphans: 2; text-align: left; text-indent: 0px; text-transform: none; widows: 2; word-spacing: 0px; -webkit-text-stroke-width: 0px; white-space: break-spaces; text-decoration-thickness: initial; text-decoration-style: initial; text-decoration-color: initial; margin: 0px; padding: 0px; font-family: &amp;quot;gg sans&amp;quot;, &amp;quot;Noto Sans&amp;quot;, &amp;quot;Helvetica Neue&amp;quot;, Helvetica, Arial, sans-serif; font-size: 16px; vertical-align: baseline; outline: 0px; color: rgb(219, 222, 225); background-color: rgba(2, 2, 2, 0.06);&quot;&gt;.&lt;br style=&quot;border-color: rgb(0, 0, 0);&quot;&gt;&lt;/span&gt;" style="text;whiteSpace=wrap;html=1;" vertex="1" parent="1">
          <mxGeometry x="190" y="420" width="150" height="40" as="geometry" />
        </mxCell>
        <mxCell id="njSxedjWznday7_HgHKP-15" value="[leche|[vino,jabon]],500,[leche|R]" style="text;html=1;align=center;verticalAlign=middle;resizable=0;points=[];autosize=1;strokeColor=none;fillColor=none;" vertex="1" parent="1">
          <mxGeometry y="370" width="200" height="30" as="geometry" />
        </mxCell>
        <mxCell id="njSxedjWznday7_HgHKP-16" value="" style="endArrow=classic;html=1;rounded=0;" edge="1" parent="1">
          <mxGeometry width="50" height="50" relative="1" as="geometry">
            <mxPoint x="360" y="390" as="sourcePoint" />
            <mxPoint x="180" y="500" as="targetPoint" />
            <Array as="points">
              <mxPoint x="360" y="480" />
              <mxPoint x="180" y="480" />
            </Array>
          </mxGeometry>
        </mxCell>
        <mxCell id="njSxedjWznday7_HgHKP-17" value="150 =&amp;lt;500" style="text;html=1;align=center;verticalAlign=middle;resizable=0;points=[];autosize=1;strokeColor=none;fillColor=none;" vertex="1" parent="1">
          <mxGeometry x="160" y="498" width="80" height="30" as="geometry" />
        </mxCell>
        <mxCell id="njSxedjWznday7_HgHKP-18" value="" style="endArrow=classic;html=1;rounded=0;" edge="1" parent="1">
          <mxGeometry width="50" height="50" relative="1" as="geometry">
            <mxPoint x="420" y="370" as="sourcePoint" />
            <mxPoint x="180" y="550" as="targetPoint" />
            <Array as="points">
              <mxPoint x="420" y="530" />
              <mxPoint x="180" y="530" />
            </Array>
          </mxGeometry>
        </mxCell>
        <mxCell id="njSxedjWznday7_HgHKP-19" value="Z is 500-150" style="text;html=1;align=center;verticalAlign=middle;resizable=0;points=[];autosize=1;strokeColor=none;fillColor=none;" vertex="1" parent="1">
          <mxGeometry x="160" y="548" width="90" height="30" as="geometry" />
        </mxCell>
        <mxCell id="njSxedjWznday7_HgHKP-20" value="" style="endArrow=none;html=1;rounded=0;" edge="1" parent="1">
          <mxGeometry width="50" height="50" relative="1" as="geometry">
            <mxPoint x="490" y="370" as="sourcePoint" />
            <mxPoint x="600" y="370" as="targetPoint" />
            <Array as="points">
              <mxPoint x="500" y="390" />
              <mxPoint x="590" y="390" />
            </Array>
          </mxGeometry>
        </mxCell>
        <mxCell id="njSxedjWznday7_HgHKP-21" value="" style="endArrow=classic;html=1;rounded=0;" edge="1" parent="1">
          <mxGeometry width="50" height="50" relative="1" as="geometry">
            <mxPoint x="510" y="390" as="sourcePoint" />
            <mxPoint x="180" y="620" as="targetPoint" />
            <Array as="points">
              <mxPoint x="510" y="600" />
              <mxPoint x="180" y="600" />
            </Array>
          </mxGeometry>
        </mxCell>
        <mxCell id="njSxedjWznday7_HgHKP-22" value="10" style="ellipse;whiteSpace=wrap;html=1;aspect=fixed;" vertex="1" parent="1">
          <mxGeometry x="170" y="620" width="30" height="30" as="geometry" />
        </mxCell>
        <mxCell id="njSxedjWznday7_HgHKP-23" value="" style="endArrow=none;html=1;rounded=0;" edge="1" parent="1">
          <mxGeometry width="50" height="50" relative="1" as="geometry">
            <mxPoint x="350" y="650" as="sourcePoint" />
            <mxPoint x="470" y="650" as="targetPoint" />
            <Array as="points">
              <mxPoint x="360" y="670" />
              <mxPoint x="460" y="670" />
            </Array>
          </mxGeometry>
        </mxCell>
        <mxCell id="njSxedjWznday7_HgHKP-24" value="[vino|[jabon]],350,[vino|R]" style="text;html=1;align=center;verticalAlign=middle;resizable=0;points=[];autosize=1;strokeColor=none;fillColor=none;" vertex="1" parent="1">
          <mxGeometry x="170" y="650" width="160" height="30" as="geometry" />
        </mxCell>
        <mxCell id="njSxedjWznday7_HgHKP-25" value="" style="endArrow=none;html=1;rounded=0;" edge="1" parent="1">
          <mxGeometry width="50" height="50" relative="1" as="geometry">
            <mxPoint x="600" y="650" as="sourcePoint" />
            <mxPoint x="710" y="650" as="targetPoint" />
            <Array as="points">
              <mxPoint x="610" y="670" />
              <mxPoint x="700" y="670" />
            </Array>
          </mxGeometry>
        </mxCell>
        <mxCell id="njSxedjWznday7_HgHKP-26" value="&lt;em style=&quot;border: 0px; font-variant-ligatures: normal; font-variant-caps: normal; font-weight: 400; letter-spacing: normal; orphans: 2; text-align: left; text-indent: 0px; text-transform: none; widows: 2; word-spacing: 0px; -webkit-text-stroke-width: 0px; white-space: break-spaces; text-decoration-thickness: initial; text-decoration-style: initial; text-decoration-color: initial; margin: 0px; padding: 0px; font-style: italic; font-family: &amp;quot;gg sans&amp;quot;, &amp;quot;Noto Sans&amp;quot;, &amp;quot;Helvetica Neue&amp;quot;, Helvetica, Arial, sans-serif; font-size: 16px; vertical-align: baseline; color: rgb(219, 222, 225); background-color: rgba(2, 2, 2, 0.06);&quot;&gt;&lt;span style=&quot;border: 0px; margin: 0px; padding: 0px; font-weight: inherit; font-style: inherit; font-family: inherit; font-size: 16px; vertical-align: baseline; outline: 0px;&quot;&gt;compra&lt;/span&gt;&lt;span style=&quot;border: 0px; margin: 0px; padding: 0px; font-weight: inherit; font-style: inherit; font-family: inherit; font-size: 16px; vertical-align: baseline; outline: 0px;&quot;&gt;(&lt;/span&gt;&lt;span style=&quot;border: 0px; margin: 0px; padding: 0px; font-weight: inherit; font-style: inherit; font-family: inherit; font-size: 16px; vertical-align: baseline; outline: 0px;&quot;&gt;[C&lt;/span&gt;&lt;span style=&quot;border: 0px; margin: 0px; padding: 0px; font-weight: inherit; font-style: inherit; font-family: inherit; font-size: 16px; vertical-align: baseline; outline: 0px;&quot;&gt;|L&lt;/span&gt;&lt;span style=&quot;border: 0px; margin: 0px; padding: 0px; font-weight: inherit; font-style: inherit; font-family: inherit; font-size: 16px; vertical-align: baseline; outline: 0px;&quot;&gt;]&lt;/span&gt;&lt;span style=&quot;border: 0px; margin: 0px; padding: 0px; font-weight: inherit; font-style: inherit; font-family: inherit; font-size: 16px; vertical-align: baseline; outline: 0px;&quot;&gt;,I&lt;/span&gt;&lt;span style=&quot;border: 0px; margin: 0px; padding: 0px; font-weight: inherit; font-style: inherit; font-family: inherit; font-size: 16px; vertical-align: baseline; outline: 0px;&quot;&gt;,&lt;/span&gt;&lt;span style=&quot;border: 0px; margin: 0px; padding: 0px; font-weight: inherit; font-style: inherit; font-family: inherit; font-size: 16px; vertical-align: baseline; outline: 0px;&quot;&gt;[C&lt;/span&gt;&lt;span style=&quot;border: 0px; margin: 0px; padding: 0px; font-weight: inherit; font-style: inherit; font-family: inherit; font-size: 16px; vertical-align: baseline; outline: 0px;&quot;&gt;|R&lt;/span&gt;&lt;span style=&quot;border: 0px; margin: 0px; padding: 0px; font-weight: inherit; font-style: inherit; font-family: inherit; font-size: 16px; vertical-align: baseline; outline: 0px;&quot;&gt;]&lt;/span&gt;&lt;span style=&quot;border: 0px; margin: 0px; padding: 0px; font-weight: inherit; font-style: inherit; font-family: inherit; font-size: 16px; vertical-align: baseline; outline: 0px;&quot;&gt;)&lt;/span&gt;&lt;span style=&quot;border: 0px; margin: 0px; padding: 0px; font-weight: inherit; font-style: inherit; font-family: inherit; font-size: 16px; vertical-align: baseline; outline: 0px;&quot;&gt;:&lt;/span&gt;&lt;span style=&quot;border: 0px; margin: 0px; padding: 0px; font-weight: inherit; font-style: inherit; font-family: inherit; font-size: 16px; vertical-align: baseline; outline: 0px;&quot;&gt;-producto&lt;/span&gt;&lt;span style=&quot;border: 0px; margin: 0px; padding: 0px; font-weight: inherit; font-style: inherit; font-family: inherit; font-size: 16px; vertical-align: baseline; outline: 0px;&quot;&gt;(C&lt;/span&gt;&lt;span style=&quot;border: 0px; margin: 0px; padding: 0px; font-weight: inherit; font-style: inherit; font-family: inherit; font-size: 16px; vertical-align: baseline; outline: 0px;&quot;&gt;,Pre&lt;/span&gt;&lt;span style=&quot;border: 0px; margin: 0px; padding: 0px; font-weight: inherit; font-style: inherit; font-family: inherit; font-size: 16px; vertical-align: baseline; outline: 0px;&quot;&gt;)&lt;/span&gt;&lt;span style=&quot;border: 0px; margin: 0px; padding: 0px; font-weight: inherit; font-style: inherit; font-family: inherit; font-size: 16px; vertical-align: baseline; outline: 0px;&quot;&gt;,Pre&lt;/span&gt;&lt;span style=&quot;border: 0px; margin: 0px; padding: 0px; font-weight: inherit; font-style: inherit; font-family: inherit; font-size: 16px; vertical-align: baseline; outline: 0px;&quot;&gt;=&lt;/span&gt;&lt;span style=&quot;border: 0px; margin: 0px; padding: 0px; font-weight: inherit; font-style: inherit; font-family: inherit; font-size: 16px; vertical-align: baseline; outline: 0px;&quot;&gt;&amp;lt;I&lt;/span&gt;&lt;span style=&quot;border: 0px; margin: 0px; padding: 0px; font-weight: inherit; font-style: inherit; font-family: inherit; font-size: 16px; vertical-align: baseline; outline: 0px;&quot;&gt;,Z is I -&lt;/span&gt;&lt;span style=&quot;border: 0px; margin: 0px; padding: 0px; font-weight: inherit; font-style: inherit; font-family: inherit; font-size: 16px; vertical-align: baseline; outline: 0px;&quot;&gt;Pre&lt;/span&gt;&lt;span style=&quot;border: 0px; margin: 0px; padding: 0px; font-weight: inherit; font-style: inherit; font-family: inherit; font-size: 16px; vertical-align: baseline; outline: 0px;&quot;&gt;,compra&lt;/span&gt;&lt;span style=&quot;border: 0px; margin: 0px; padding: 0px; font-weight: inherit; font-style: inherit; font-family: inherit; font-size: 16px; vertical-align: baseline; outline: 0px;&quot;&gt;([jabon]&lt;/span&gt;&lt;span style=&quot;border: 0px; margin: 0px; padding: 0px; font-weight: inherit; font-style: inherit; font-family: inherit; font-size: 16px; vertical-align: baseline; outline: 0px;&quot;&gt;,60&lt;/span&gt;&lt;span style=&quot;border: 0px; margin: 0px; padding: 0px; font-weight: inherit; font-style: inherit; font-family: inherit; font-size: 16px; vertical-align: baseline; outline: 0px;&quot;&gt;,R&lt;/span&gt;&lt;span style=&quot;border: 0px; margin: 0px; padding: 0px; font-weight: inherit; font-style: inherit; font-family: inherit; font-size: 16px; vertical-align: baseline; outline: 0px;&quot;&gt;)&lt;/span&gt;&lt;span style=&quot;border: 0px; margin: 0px; padding: 0px; font-weight: inherit; font-style: inherit; font-family: inherit; font-size: 16px; vertical-align: baseline; outline: 0px;&quot;&gt;.&lt;/span&gt;&lt;/em&gt;" style="text;whiteSpace=wrap;html=1;" vertex="1" parent="1">
          <mxGeometry x="200" y="615" width="770" height="40" as="geometry" />
        </mxCell>
        <mxCell id="njSxedjWznday7_HgHKP-27" value="*" style="ellipse;whiteSpace=wrap;html=1;" vertex="1" parent="1">
          <mxGeometry x="10" y="400" width="10" height="10" as="geometry" />
        </mxCell>
        <mxCell id="njSxedjWznday7_HgHKP-28" value="" style="endArrow=classic;html=1;rounded=0;" edge="1" parent="1">
          <mxGeometry width="50" height="50" relative="1" as="geometry">
            <mxPoint x="410" y="670" as="sourcePoint" />
            <mxPoint x="320" y="720" as="targetPoint" />
            <Array as="points">
              <mxPoint x="410" y="700" />
              <mxPoint x="320" y="700" />
            </Array>
          </mxGeometry>
        </mxCell>
        <mxCell id="njSxedjWznday7_HgHKP-29" value="7" style="ellipse;whiteSpace=wrap;html=1;aspect=fixed;" vertex="1" parent="1">
          <mxGeometry x="310" y="720" width="30" height="30" as="geometry" />
        </mxCell>
        <mxCell id="njSxedjWznday7_HgHKP-31" value="producto(vino,290)" style="text;html=1;align=center;verticalAlign=middle;resizable=0;points=[];autosize=1;strokeColor=none;fillColor=none;" vertex="1" parent="1">
          <mxGeometry x="330" y="720" width="120" height="30" as="geometry" />
        </mxCell>
        <mxCell id="njSxedjWznday7_HgHKP-32" value="&lt;b&gt;&lt;u&gt;true&lt;/u&gt;&lt;/b&gt;" style="text;html=1;align=center;verticalAlign=middle;resizable=0;points=[];autosize=1;strokeColor=none;fillColor=none;" vertex="1" parent="1">
          <mxGeometry x="470" y="640" width="50" height="30" as="geometry" />
        </mxCell>
        <mxCell id="njSxedjWznday7_HgHKP-33" value="Z = 60" style="text;html=1;align=center;verticalAlign=middle;resizable=0;points=[];autosize=1;strokeColor=none;fillColor=none;" vertex="1" parent="1">
          <mxGeometry x="530" y="640" width="60" height="30" as="geometry" />
        </mxCell>
        <mxCell id="njSxedjWznday7_HgHKP-34" value="*" style="ellipse;whiteSpace=wrap;html=1;" vertex="1" parent="1">
          <mxGeometry x="160" y="645" width="10" height="10" as="geometry" />
        </mxCell>
        <mxCell id="njSxedjWznday7_HgHKP-35" value="" style="endArrow=classic;html=1;rounded=0;" edge="1" parent="1">
          <mxGeometry width="50" height="50" relative="1" as="geometry">
            <mxPoint x="620" y="670" as="sourcePoint" />
            <mxPoint x="290" y="790" as="targetPoint" />
            <Array as="points">
              <mxPoint x="620" y="760" />
              <mxPoint x="290" y="760" />
            </Array>
          </mxGeometry>
        </mxCell>
        <mxCell id="njSxedjWznday7_HgHKP-36" value="10" style="ellipse;whiteSpace=wrap;html=1;aspect=fixed;" vertex="1" parent="1">
          <mxGeometry x="270" y="790" width="30" height="30" as="geometry" />
        </mxCell>
        <mxCell id="njSxedjWznday7_HgHKP-37" value="&lt;em style=&quot;border: 0px; font-variant-ligatures: normal; font-variant-caps: normal; font-weight: 400; letter-spacing: normal; orphans: 2; text-align: left; text-indent: 0px; text-transform: none; widows: 2; word-spacing: 0px; -webkit-text-stroke-width: 0px; white-space: break-spaces; text-decoration-thickness: initial; text-decoration-style: initial; text-decoration-color: initial; margin: 0px; padding: 0px; font-style: italic; font-family: &amp;quot;gg sans&amp;quot;, &amp;quot;Noto Sans&amp;quot;, &amp;quot;Helvetica Neue&amp;quot;, Helvetica, Arial, sans-serif; font-size: 16px; vertical-align: baseline; color: rgb(219, 222, 225); background-color: rgba(2, 2, 2, 0.06);&quot;&gt;&lt;span style=&quot;border: 0px; margin: 0px; padding: 0px; font-weight: inherit; font-style: inherit; font-family: inherit; font-size: 16px; vertical-align: baseline; outline: 0px;&quot;&gt;compra&lt;/span&gt;&lt;span style=&quot;border: 0px; margin: 0px; padding: 0px; font-weight: inherit; font-style: inherit; font-family: inherit; font-size: 16px; vertical-align: baseline; outline: 0px;&quot;&gt;(&lt;/span&gt;&lt;span style=&quot;border: 0px; margin: 0px; padding: 0px; font-weight: inherit; font-style: inherit; font-family: inherit; font-size: 16px; vertical-align: baseline; outline: 0px;&quot;&gt;[C&lt;/span&gt;&lt;span style=&quot;border: 0px; margin: 0px; padding: 0px; font-weight: inherit; font-style: inherit; font-family: inherit; font-size: 16px; vertical-align: baseline; outline: 0px;&quot;&gt;|L&lt;/span&gt;&lt;span style=&quot;border: 0px; margin: 0px; padding: 0px; font-weight: inherit; font-style: inherit; font-family: inherit; font-size: 16px; vertical-align: baseline; outline: 0px;&quot;&gt;]&lt;/span&gt;&lt;span style=&quot;border: 0px; margin: 0px; padding: 0px; font-weight: inherit; font-style: inherit; font-family: inherit; font-size: 16px; vertical-align: baseline; outline: 0px;&quot;&gt;,I&lt;/span&gt;&lt;span style=&quot;border: 0px; margin: 0px; padding: 0px; font-weight: inherit; font-style: inherit; font-family: inherit; font-size: 16px; vertical-align: baseline; outline: 0px;&quot;&gt;,&lt;/span&gt;&lt;span style=&quot;border: 0px; margin: 0px; padding: 0px; font-weight: inherit; font-style: inherit; font-family: inherit; font-size: 16px; vertical-align: baseline; outline: 0px;&quot;&gt;[C&lt;/span&gt;&lt;span style=&quot;border: 0px; margin: 0px; padding: 0px; font-weight: inherit; font-style: inherit; font-family: inherit; font-size: 16px; vertical-align: baseline; outline: 0px;&quot;&gt;|R&lt;/span&gt;&lt;span style=&quot;border: 0px; margin: 0px; padding: 0px; font-weight: inherit; font-style: inherit; font-family: inherit; font-size: 16px; vertical-align: baseline; outline: 0px;&quot;&gt;]&lt;/span&gt;&lt;span style=&quot;border: 0px; margin: 0px; padding: 0px; font-weight: inherit; font-style: inherit; font-family: inherit; font-size: 16px; vertical-align: baseline; outline: 0px;&quot;&gt;)&lt;/span&gt;&lt;span style=&quot;border: 0px; margin: 0px; padding: 0px; font-weight: inherit; font-style: inherit; font-family: inherit; font-size: 16px; vertical-align: baseline; outline: 0px;&quot;&gt;:&lt;/span&gt;&lt;span style=&quot;border: 0px; margin: 0px; padding: 0px; font-weight: inherit; font-style: inherit; font-family: inherit; font-size: 16px; vertical-align: baseline; outline: 0px;&quot;&gt;-producto&lt;/span&gt;&lt;span style=&quot;border: 0px; margin: 0px; padding: 0px; font-weight: inherit; font-style: inherit; font-family: inherit; font-size: 16px; vertical-align: baseline; outline: 0px;&quot;&gt;(C&lt;/span&gt;&lt;span style=&quot;border: 0px; margin: 0px; padding: 0px; font-weight: inherit; font-style: inherit; font-family: inherit; font-size: 16px; vertical-align: baseline; outline: 0px;&quot;&gt;,Pre&lt;/span&gt;&lt;span style=&quot;border: 0px; margin: 0px; padding: 0px; font-weight: inherit; font-style: inherit; font-family: inherit; font-size: 16px; vertical-align: baseline; outline: 0px;&quot;&gt;)&lt;/span&gt;&lt;span style=&quot;border: 0px; margin: 0px; padding: 0px; font-weight: inherit; font-style: inherit; font-family: inherit; font-size: 16px; vertical-align: baseline; outline: 0px;&quot;&gt;,Pre&lt;/span&gt;&lt;span style=&quot;border: 0px; margin: 0px; padding: 0px; font-weight: inherit; font-style: inherit; font-family: inherit; font-size: 16px; vertical-align: baseline; outline: 0px;&quot;&gt;=&lt;/span&gt;&lt;span style=&quot;border: 0px; margin: 0px; padding: 0px; font-weight: inherit; font-style: inherit; font-family: inherit; font-size: 16px; vertical-align: baseline; outline: 0px;&quot;&gt;&amp;lt;I&lt;/span&gt;&lt;span style=&quot;border: 0px; margin: 0px; padding: 0px; font-weight: inherit; font-style: inherit; font-family: inherit; font-size: 16px; vertical-align: baseline; outline: 0px;&quot;&gt;,Z is I -&lt;/span&gt;&lt;span style=&quot;border: 0px; margin: 0px; padding: 0px; font-weight: inherit; font-style: inherit; font-family: inherit; font-size: 16px; vertical-align: baseline; outline: 0px;&quot;&gt;Pre&lt;/span&gt;&lt;span style=&quot;border: 0px; margin: 0px; padding: 0px; font-weight: inherit; font-style: inherit; font-family: inherit; font-size: 16px; vertical-align: baseline; outline: 0px;&quot;&gt;,compra&lt;/span&gt;&lt;span style=&quot;border: 0px; margin: 0px; padding: 0px; font-weight: inherit; font-style: inherit; font-family: inherit; font-size: 16px; vertical-align: baseline; outline: 0px;&quot;&gt;(L&lt;/span&gt;&lt;span style=&quot;border: 0px; margin: 0px; padding: 0px; font-weight: inherit; font-style: inherit; font-family: inherit; font-size: 16px; vertical-align: baseline; outline: 0px;&quot;&gt;,Z&lt;/span&gt;&lt;span style=&quot;border: 0px; margin: 0px; padding: 0px; font-weight: inherit; font-style: inherit; font-family: inherit; font-size: 16px; vertical-align: baseline; outline: 0px;&quot;&gt;,R&lt;/span&gt;&lt;span style=&quot;border: 0px; margin: 0px; padding: 0px; font-weight: inherit; font-style: inherit; font-family: inherit; font-size: 16px; vertical-align: baseline; outline: 0px;&quot;&gt;)&lt;/span&gt;&lt;span style=&quot;border: 0px; margin: 0px; padding: 0px; font-weight: inherit; font-style: inherit; font-family: inherit; font-size: 16px; vertical-align: baseline; outline: 0px;&quot;&gt;.&lt;/span&gt;&lt;/em&gt;" style="text;whiteSpace=wrap;html=1;" vertex="1" parent="1">
          <mxGeometry x="300" y="785" width="770" height="40" as="geometry" />
        </mxCell>
        <mxCell id="njSxedjWznday7_HgHKP-38" value="[jabon|[ ]],60,[jabon|R]" style="text;html=1;align=center;verticalAlign=middle;resizable=0;points=[];autosize=1;strokeColor=none;fillColor=none;" vertex="1" parent="1">
          <mxGeometry x="300" y="820" width="140" height="30" as="geometry" />
        </mxCell>
        <mxCell id="njSxedjWznday7_HgHKP-39" value="" style="endArrow=none;html=1;rounded=0;" edge="1" parent="1">
          <mxGeometry width="50" height="50" relative="1" as="geometry">
            <mxPoint x="454" y="820" as="sourcePoint" />
            <mxPoint x="574" y="820" as="targetPoint" />
            <Array as="points">
              <mxPoint x="464" y="840" />
              <mxPoint x="564" y="840" />
            </Array>
          </mxGeometry>
        </mxCell>
        <mxCell id="njSxedjWznday7_HgHKP-40" value="" style="endArrow=classic;html=1;rounded=0;" edge="1" parent="1">
          <mxGeometry width="50" height="50" relative="1" as="geometry">
            <mxPoint x="514" y="840" as="sourcePoint" />
            <mxPoint x="424" y="890" as="targetPoint" />
            <Array as="points">
              <mxPoint x="514" y="870" />
              <mxPoint x="424" y="870" />
            </Array>
          </mxGeometry>
        </mxCell>
        <mxCell id="njSxedjWznday7_HgHKP-41" value="7" style="ellipse;whiteSpace=wrap;html=1;aspect=fixed;" vertex="1" parent="1">
          <mxGeometry x="414" y="890" width="30" height="30" as="geometry" />
        </mxCell>
        <mxCell id="njSxedjWznday7_HgHKP-42" value="producto(jabon,120)" style="text;html=1;align=center;verticalAlign=middle;resizable=0;points=[];autosize=1;strokeColor=none;fillColor=none;" vertex="1" parent="1">
          <mxGeometry x="430" y="890" width="130" height="30" as="geometry" />
        </mxCell>
        <mxCell id="njSxedjWznday7_HgHKP-43" value="&lt;b&gt;&lt;u&gt;False&lt;/u&gt;&lt;/b&gt;" style="text;html=1;align=center;verticalAlign=middle;resizable=0;points=[];autosize=1;strokeColor=none;fillColor=none;" vertex="1" parent="1">
          <mxGeometry x="570" y="810" width="50" height="30" as="geometry" />
        </mxCell>
        <mxCell id="njSxedjWznday7_HgHKP-44" value="" style="endArrow=classic;html=1;rounded=0;" edge="1" parent="1">
          <mxGeometry width="50" height="50" relative="1" as="geometry">
            <mxPoint x="160" y="660" as="sourcePoint" />
            <mxPoint x="160" y="960" as="targetPoint" />
          </mxGeometry>
        </mxCell>
        <mxCell id="njSxedjWznday7_HgHKP-45" value="11" style="ellipse;whiteSpace=wrap;html=1;aspect=fixed;" vertex="1" parent="1">
          <mxGeometry x="150" y="960" width="30" height="30" as="geometry" />
        </mxCell>
        <mxCell id="njSxedjWznday7_HgHKP-46" value="&lt;em style=&quot;border: 0px; font-variant-ligatures: normal; font-variant-caps: normal; font-weight: 400; letter-spacing: normal; orphans: 2; text-align: left; text-indent: 0px; text-transform: none; widows: 2; word-spacing: 0px; -webkit-text-stroke-width: 0px; white-space: break-spaces; text-decoration-thickness: initial; text-decoration-style: initial; text-decoration-color: initial; margin: 0px; padding: 0px; font-style: italic; font-family: &amp;quot;gg sans&amp;quot;, &amp;quot;Noto Sans&amp;quot;, &amp;quot;Helvetica Neue&amp;quot;, Helvetica, Arial, sans-serif; font-size: 16px; vertical-align: baseline; color: rgb(219, 222, 225); background-color: rgba(2, 2, 2, 0.06);&quot;&gt;&lt;span style=&quot;border: 0px; margin: 0px; padding: 0px; font-weight: inherit; font-style: inherit; font-family: inherit; font-size: 16px; vertical-align: baseline; outline: 0px;&quot;&gt;compra&lt;/span&gt;&lt;span style=&quot;border: 0px; margin: 0px; padding: 0px; font-weight: inherit; font-style: inherit; font-family: inherit; font-size: 16px; vertical-align: baseline; outline: 0px;&quot;&gt;(_&lt;/span&gt;&lt;/em&gt;&lt;span style=&quot;border: 0px; font-style: normal; font-variant-ligatures: normal; font-variant-caps: normal; font-weight: 400; letter-spacing: normal; orphans: 2; text-align: left; text-indent: 0px; text-transform: none; widows: 2; word-spacing: 0px; -webkit-text-stroke-width: 0px; white-space: break-spaces; text-decoration-thickness: initial; text-decoration-style: initial; text-decoration-color: initial; margin: 0px; padding: 0px; font-family: &amp;quot;gg sans&amp;quot;, &amp;quot;Noto Sans&amp;quot;, &amp;quot;Helvetica Neue&amp;quot;, Helvetica, Arial, sans-serif; font-size: 16px; vertical-align: baseline; outline: 0px; color: rgb(219, 222, 225); background-color: rgba(2, 2, 2, 0.06);&quot;&gt;,&lt;/span&gt;&lt;span style=&quot;border: 0px; font-style: normal; font-variant-ligatures: normal; font-variant-caps: normal; font-weight: 400; letter-spacing: normal; orphans: 2; text-align: left; text-indent: 0px; text-transform: none; widows: 2; word-spacing: 0px; -webkit-text-stroke-width: 0px; white-space: break-spaces; text-decoration-thickness: initial; text-decoration-style: initial; text-decoration-color: initial; margin: 0px; padding: 0px; font-family: &amp;quot;gg sans&amp;quot;, &amp;quot;Noto Sans&amp;quot;, &amp;quot;Helvetica Neue&amp;quot;, Helvetica, Arial, sans-serif; font-size: 16px; vertical-align: baseline; outline: 0px; color: rgb(219, 222, 225); background-color: rgba(2, 2, 2, 0.06);&quot;&gt;_&lt;/span&gt;&lt;span style=&quot;border: 0px; font-style: normal; font-variant-ligatures: normal; font-variant-caps: normal; font-weight: 400; letter-spacing: normal; orphans: 2; text-align: left; text-indent: 0px; text-transform: none; widows: 2; word-spacing: 0px; -webkit-text-stroke-width: 0px; white-space: break-spaces; text-decoration-thickness: initial; text-decoration-style: initial; text-decoration-color: initial; margin: 0px; padding: 0px; font-family: &amp;quot;gg sans&amp;quot;, &amp;quot;Noto Sans&amp;quot;, &amp;quot;Helvetica Neue&amp;quot;, Helvetica, Arial, sans-serif; font-size: 16px; vertical-align: baseline; outline: 0px; color: rgb(219, 222, 225); background-color: rgba(2, 2, 2, 0.06);&quot;&gt;,&lt;/span&gt;&lt;span style=&quot;border: 0px; font-style: normal; font-variant-ligatures: normal; font-variant-caps: normal; font-weight: 400; letter-spacing: normal; orphans: 2; text-align: left; text-indent: 0px; text-transform: none; widows: 2; word-spacing: 0px; -webkit-text-stroke-width: 0px; white-space: break-spaces; text-decoration-thickness: initial; text-decoration-style: initial; text-decoration-color: initial; margin: 0px; padding: 0px; font-family: &amp;quot;gg sans&amp;quot;, &amp;quot;Noto Sans&amp;quot;, &amp;quot;Helvetica Neue&amp;quot;, Helvetica, Arial, sans-serif; font-size: 16px; vertical-align: baseline; outline: 0px; color: rgb(219, 222, 225); background-color: rgba(2, 2, 2, 0.06);&quot;&gt;[&lt;/span&gt;&lt;span style=&quot;border: 0px; font-style: normal; font-variant-ligatures: normal; font-variant-caps: normal; font-weight: 400; letter-spacing: normal; orphans: 2; text-align: left; text-indent: 0px; text-transform: none; widows: 2; word-spacing: 0px; -webkit-text-stroke-width: 0px; white-space: break-spaces; text-decoration-thickness: initial; text-decoration-style: initial; text-decoration-color: initial; margin: 0px; padding: 0px; font-family: &amp;quot;gg sans&amp;quot;, &amp;quot;Noto Sans&amp;quot;, &amp;quot;Helvetica Neue&amp;quot;, Helvetica, Arial, sans-serif; font-size: 16px; vertical-align: baseline; outline: 0px; color: rgb(219, 222, 225); background-color: rgba(2, 2, 2, 0.06);&quot;&gt;]&lt;/span&gt;&lt;span style=&quot;border: 0px; font-style: normal; font-variant-ligatures: normal; font-variant-caps: normal; font-weight: 400; letter-spacing: normal; orphans: 2; text-align: left; text-indent: 0px; text-transform: none; widows: 2; word-spacing: 0px; -webkit-text-stroke-width: 0px; white-space: break-spaces; text-decoration-thickness: initial; text-decoration-style: initial; text-decoration-color: initial; margin: 0px; padding: 0px; font-family: &amp;quot;gg sans&amp;quot;, &amp;quot;Noto Sans&amp;quot;, &amp;quot;Helvetica Neue&amp;quot;, Helvetica, Arial, sans-serif; font-size: 16px; vertical-align: baseline; outline: 0px; color: rgb(219, 222, 225); background-color: rgba(2, 2, 2, 0.06);&quot;&gt;)&lt;/span&gt;&lt;span style=&quot;border: 0px; font-style: normal; font-variant-ligatures: normal; font-variant-caps: normal; font-weight: 400; letter-spacing: normal; orphans: 2; text-align: left; text-indent: 0px; text-transform: none; widows: 2; word-spacing: 0px; -webkit-text-stroke-width: 0px; white-space: break-spaces; text-decoration-thickness: initial; text-decoration-style: initial; text-decoration-color: initial; margin: 0px; padding: 0px; font-family: &amp;quot;gg sans&amp;quot;, &amp;quot;Noto Sans&amp;quot;, &amp;quot;Helvetica Neue&amp;quot;, Helvetica, Arial, sans-serif; font-size: 16px; vertical-align: baseline; outline: 0px; color: rgb(219, 222, 225); background-color: rgba(2, 2, 2, 0.06);&quot;&gt;.&lt;/span&gt;" style="text;whiteSpace=wrap;html=1;" vertex="1" parent="1">
          <mxGeometry x="180" y="960" width="140" height="40" as="geometry" />
        </mxCell>
        <mxCell id="njSxedjWznday7_HgHKP-47" value="*" style="ellipse;whiteSpace=wrap;html=1;" vertex="1" parent="1">
          <mxGeometry x="260" y="824" width="10" height="10" as="geometry" />
        </mxCell>
        <mxCell id="njSxedjWznday7_HgHKP-48" value="" style="endArrow=classic;html=1;rounded=0;" edge="1" parent="1">
          <mxGeometry width="50" height="50" relative="1" as="geometry">
            <mxPoint x="260" y="839" as="sourcePoint" />
            <mxPoint x="260" y="920" as="targetPoint" />
          </mxGeometry>
        </mxCell>
        <mxCell id="njSxedjWznday7_HgHKP-49" value="11" style="ellipse;whiteSpace=wrap;html=1;aspect=fixed;" vertex="1" parent="1">
          <mxGeometry x="240" y="920" width="30" height="30" as="geometry" />
        </mxCell>
        <mxCell id="njSxedjWznday7_HgHKP-50" value="&lt;em style=&quot;border: 0px; font-variant-ligatures: normal; font-variant-caps: normal; font-weight: 400; letter-spacing: normal; orphans: 2; text-align: left; text-indent: 0px; text-transform: none; widows: 2; word-spacing: 0px; -webkit-text-stroke-width: 0px; white-space: break-spaces; text-decoration-thickness: initial; text-decoration-style: initial; text-decoration-color: initial; margin: 0px; padding: 0px; font-style: italic; font-family: &amp;quot;gg sans&amp;quot;, &amp;quot;Noto Sans&amp;quot;, &amp;quot;Helvetica Neue&amp;quot;, Helvetica, Arial, sans-serif; font-size: 16px; vertical-align: baseline; color: rgb(219, 222, 225); background-color: rgba(2, 2, 2, 0.06);&quot;&gt;&lt;span style=&quot;border: 0px; margin: 0px; padding: 0px; font-weight: inherit; font-style: inherit; font-family: inherit; font-size: 16px; vertical-align: baseline; outline: 0px;&quot;&gt;compra&lt;/span&gt;&lt;span style=&quot;border: 0px; margin: 0px; padding: 0px; font-weight: inherit; font-style: inherit; font-family: inherit; font-size: 16px; vertical-align: baseline; outline: 0px;&quot;&gt;(_&lt;/span&gt;&lt;/em&gt;&lt;span style=&quot;border: 0px; font-style: normal; font-variant-ligatures: normal; font-variant-caps: normal; font-weight: 400; letter-spacing: normal; orphans: 2; text-align: left; text-indent: 0px; text-transform: none; widows: 2; word-spacing: 0px; -webkit-text-stroke-width: 0px; white-space: break-spaces; text-decoration-thickness: initial; text-decoration-style: initial; text-decoration-color: initial; margin: 0px; padding: 0px; font-family: &amp;quot;gg sans&amp;quot;, &amp;quot;Noto Sans&amp;quot;, &amp;quot;Helvetica Neue&amp;quot;, Helvetica, Arial, sans-serif; font-size: 16px; vertical-align: baseline; outline: 0px; color: rgb(219, 222, 225); background-color: rgba(2, 2, 2, 0.06);&quot;&gt;,&lt;/span&gt;&lt;span style=&quot;border: 0px; font-style: normal; font-variant-ligatures: normal; font-variant-caps: normal; font-weight: 400; letter-spacing: normal; orphans: 2; text-align: left; text-indent: 0px; text-transform: none; widows: 2; word-spacing: 0px; -webkit-text-stroke-width: 0px; white-space: break-spaces; text-decoration-thickness: initial; text-decoration-style: initial; text-decoration-color: initial; margin: 0px; padding: 0px; font-family: &amp;quot;gg sans&amp;quot;, &amp;quot;Noto Sans&amp;quot;, &amp;quot;Helvetica Neue&amp;quot;, Helvetica, Arial, sans-serif; font-size: 16px; vertical-align: baseline; outline: 0px; color: rgb(219, 222, 225); background-color: rgba(2, 2, 2, 0.06);&quot;&gt;_&lt;/span&gt;&lt;span style=&quot;border: 0px; font-style: normal; font-variant-ligatures: normal; font-variant-caps: normal; font-weight: 400; letter-spacing: normal; orphans: 2; text-align: left; text-indent: 0px; text-transform: none; widows: 2; word-spacing: 0px; -webkit-text-stroke-width: 0px; white-space: break-spaces; text-decoration-thickness: initial; text-decoration-style: initial; text-decoration-color: initial; margin: 0px; padding: 0px; font-family: &amp;quot;gg sans&amp;quot;, &amp;quot;Noto Sans&amp;quot;, &amp;quot;Helvetica Neue&amp;quot;, Helvetica, Arial, sans-serif; font-size: 16px; vertical-align: baseline; outline: 0px; color: rgb(219, 222, 225); background-color: rgba(2, 2, 2, 0.06);&quot;&gt;,&lt;/span&gt;&lt;span style=&quot;border: 0px; font-style: normal; font-variant-ligatures: normal; font-variant-caps: normal; font-weight: 400; letter-spacing: normal; orphans: 2; text-align: left; text-indent: 0px; text-transform: none; widows: 2; word-spacing: 0px; -webkit-text-stroke-width: 0px; white-space: break-spaces; text-decoration-thickness: initial; text-decoration-style: initial; text-decoration-color: initial; margin: 0px; padding: 0px; font-family: &amp;quot;gg sans&amp;quot;, &amp;quot;Noto Sans&amp;quot;, &amp;quot;Helvetica Neue&amp;quot;, Helvetica, Arial, sans-serif; font-size: 16px; vertical-align: baseline; outline: 0px; color: rgb(219, 222, 225); background-color: rgba(2, 2, 2, 0.06);&quot;&gt;[&lt;/span&gt;&lt;span style=&quot;border: 0px; font-style: normal; font-variant-ligatures: normal; font-variant-caps: normal; font-weight: 400; letter-spacing: normal; orphans: 2; text-align: left; text-indent: 0px; text-transform: none; widows: 2; word-spacing: 0px; -webkit-text-stroke-width: 0px; white-space: break-spaces; text-decoration-thickness: initial; text-decoration-style: initial; text-decoration-color: initial; margin: 0px; padding: 0px; font-family: &amp;quot;gg sans&amp;quot;, &amp;quot;Noto Sans&amp;quot;, &amp;quot;Helvetica Neue&amp;quot;, Helvetica, Arial, sans-serif; font-size: 16px; vertical-align: baseline; outline: 0px; color: rgb(219, 222, 225); background-color: rgba(2, 2, 2, 0.06);&quot;&gt;]&lt;/span&gt;&lt;span style=&quot;border: 0px; font-style: normal; font-variant-ligatures: normal; font-variant-caps: normal; font-weight: 400; letter-spacing: normal; orphans: 2; text-align: left; text-indent: 0px; text-transform: none; widows: 2; word-spacing: 0px; -webkit-text-stroke-width: 0px; white-space: break-spaces; text-decoration-thickness: initial; text-decoration-style: initial; text-decoration-color: initial; margin: 0px; padding: 0px; font-family: &amp;quot;gg sans&amp;quot;, &amp;quot;Noto Sans&amp;quot;, &amp;quot;Helvetica Neue&amp;quot;, Helvetica, Arial, sans-serif; font-size: 16px; vertical-align: baseline; outline: 0px; color: rgb(219, 222, 225); background-color: rgba(2, 2, 2, 0.06);&quot;&gt;)&lt;/span&gt;&lt;span style=&quot;border: 0px; font-style: normal; font-variant-ligatures: normal; font-variant-caps: normal; font-weight: 400; letter-spacing: normal; orphans: 2; text-align: left; text-indent: 0px; text-transform: none; widows: 2; word-spacing: 0px; -webkit-text-stroke-width: 0px; white-space: break-spaces; text-decoration-thickness: initial; text-decoration-style: initial; text-decoration-color: initial; margin: 0px; padding: 0px; font-family: &amp;quot;gg sans&amp;quot;, &amp;quot;Noto Sans&amp;quot;, &amp;quot;Helvetica Neue&amp;quot;, Helvetica, Arial, sans-serif; font-size: 16px; vertical-align: baseline; outline: 0px; color: rgb(219, 222, 225); background-color: rgba(2, 2, 2, 0.06);&quot;&gt;.&lt;/span&gt;" style="text;whiteSpace=wrap;html=1;" vertex="1" parent="1">
          <mxGeometry x="270" y="920" width="140" height="40" as="geometry" />
        </mxCell>
        <mxCell id="njSxedjWznday7_HgHKP-51" value="&lt;b&gt;&lt;u&gt;Salida&lt;/u&gt;&lt;/b&gt;&lt;div&gt;R = [leche,vino]&lt;/div&gt;" style="text;html=1;align=center;verticalAlign=middle;resizable=0;points=[];autosize=1;strokeColor=none;fillColor=none;" vertex="1" parent="1">
          <mxGeometry x="535" y="403" width="110" height="40" as="geometry" />
        </mxCell>
        <mxCell id="njSxedjWznday7_HgHKP-52" value="R =[leche]" style="text;html=1;align=center;verticalAlign=middle;resizable=0;points=[];autosize=1;strokeColor=none;fillColor=none;" vertex="1" parent="1">
          <mxGeometry x="535" y="430" width="80" height="30" as="geometry" />
        </mxCell>
        <mxCell id="njSxedjWznday7_HgHKP-53" value="R= [ ]" style="text;html=1;align=center;verticalAlign=middle;resizable=0;points=[];autosize=1;strokeColor=none;fillColor=none;" vertex="1" parent="1">
          <mxGeometry x="540" y="443" width="50" height="30" as="geometry" />
        </mxCell>
        <mxCell id="njSxedjWznday7_HgHKP-54" value="" style="endArrow=classic;html=1;rounded=0;" edge="1" parent="1">
          <mxGeometry width="50" height="50" relative="1" as="geometry">
            <mxPoint x="389" y="950" as="sourcePoint" />
            <mxPoint x="720" y="670" as="targetPoint" />
            <Array as="points">
              <mxPoint x="820" y="950" />
              <mxPoint x="820" y="670" />
            </Array>
          </mxGeometry>
        </mxCell>
      </root>
    </mxGraphModel>
  </diagram>
</mxfile>
